<svg xmlns="http://www.w3.org/2000/svg" xmlns:xlink="http://www.w3.org/1999/xlink" xmlns:lucid="lucid" width="376" height="267"><rect width="100%" height="100%" fill="white"/><g transform="translate(-598 -1749)" lucid:page-tab-id="0_0"><path d="M640 1933.9h20v20h-20z" stroke="#000" stroke-width="2" fill="#b2d6ef"/><path d="M700 1933.9h20v20h-20zM720 1933.9h20v20h-20zM740 1933.9h20v20h-20zM760 1933.9h20v20h-20z" stroke="#000" stroke-width="2" fill="#ffeca9"/><path d="M820 1933.9h20v20h-20zM840 1933.9h20v20h-20zM860 1933.9h20v20h-20z" stroke="#000" stroke-width="2" fill="#d1bcd2"/><g fill="none"><path d="M640 1915.9v-19.33h18.67v19.34z"/><path d="M658.67 1915.9c0-.64-.53-1.16-1.17-1.16h-7c-.64 0-1.17-.52-1.17-1.17 0 .65-.52 1.17-1.16 1.17h-7c-.65 0-1.17.52-1.17 1.17" stroke="#000" stroke-width="2"/></g><g fill="none"><path d="M700 1915.9v-42h79.5v42z"/><path d="M779.5 1915.9c0-2.74-2.22-4.96-4.97-4.96h-29.8c-2.76 0-4.98-2.23-4.98-4.97 0 2.74-2.22 4.97-4.97 4.97h-29.8c-2.76 0-4.98 2.22-4.98 4.97" stroke="#000" stroke-width="2"/></g><g fill="none"><path d="M820 1915.9v-42h59.33v42z"/><path d="M879.33 1915.9c0-2.04-1.66-3.7-3.7-3.7h-22.26c-2.04 0-3.7-1.66-3.7-3.7 0 2.04-1.66 3.7-3.7 3.7H823.7c-2.04 0-3.7 1.66-3.7 3.7" stroke="#000" stroke-width="2"/></g><path d="M640 1888.65l109.04-109.04 27.26 27.27-109.04 109.04z" stroke="#000" stroke-opacity="0" stroke-width="2" fill="#fff" fill-opacity="0"/><use xlink:href="#a" transform="matrix(0.7071067811865476,-0.7071067811865475,0.7071067811865475,0.7071067811865476,647.0710678118658,1888.6481939064442) translate(0 17.88888888888889)"/><path d="M720 1888.65l122.54-122.54 24 24.02-122.53 122.54z" stroke="#000" stroke-opacity="0" stroke-width="2" fill="#fff" fill-opacity="0"/><use xlink:href="#b" transform="matrix(0.7071067811865476,-0.7071067811865475,0.7071067811865475,0.7071067811865476,727.0710678118653,1888.6481939064445) translate(0 15.38888888888889)"/><path d="M818.6 1881.54L960.12 1740l30.08 30.08-141.53 141.53z" stroke="#000" stroke-opacity="0" stroke-width="2" fill="#fff" fill-opacity="0"/><use xlink:href="#c" transform="matrix(0.7071067811865476,-0.7071067811865475,0.7071067811865475,0.7071067811865476,825.6631337008944,1881.538960818105) translate(0 19.88888888888889)"/><use xlink:href="#d" transform="matrix(0.7071067811865476,-0.7071067811865475,0.7071067811865475,0.7071067811865476,825.6631337008944,1881.538960818105) translate(81.34657118055556 19.88888888888889)"/><use xlink:href="#e" transform="matrix(0.7071067811865476,-0.7071067811865475,0.7071067811865475,0.7071067811865476,825.6631337008944,1881.538960818105) translate(113.88519965277777 19.88888888888889)"/><path d="M640 1960h21.33v20H640z" stroke="#000" stroke-opacity="0" stroke-width="2" fill="#fff" fill-opacity="0"/><use xlink:href="#f" transform="matrix(1,0,0,1,645,1965) translate(0.59912109375 12.62109375)"/><path d="M699.33 1960h21.34v20h-21.34z" stroke="#000" stroke-opacity="0" stroke-width="2" fill="#fff" fill-opacity="0"/><use xlink:href="#g" transform="matrix(1,0,0,1,704.3333333333333,1965) translate(0.59912109375 12.62109375)"/><path d="M720 1960h21.33v20H720z" stroke="#000" stroke-opacity="0" stroke-width="2" fill="#fff" fill-opacity="0"/><use xlink:href="#h" transform="matrix(1,0,0,1,724.9999999999998,1965) translate(0.59912109375 12.62109375)"/><path d="M740 1960h21.33v20H740z" stroke="#000" stroke-opacity="0" stroke-width="2" fill="#fff" fill-opacity="0"/><use xlink:href="#i" transform="matrix(1,0,0,1,744.9999999999998,1965) translate(0.59912109375 12.62109375)"/><path d="M760 1960h21.33v20H760z" stroke="#000" stroke-opacity="0" stroke-width="2" fill="#fff" fill-opacity="0"/><use xlink:href="#j" transform="matrix(1,0,0,1,765,1965) translate(0.59912109375 12.62109375)"/><path d="M821.33 1960h21.34v20h-21.34z" stroke="#000" stroke-opacity="0" stroke-width="2" fill="#fff" fill-opacity="0"/><use xlink:href="#k" transform="matrix(1,0,0,1,826.3333333333328,1965) translate(0.59912109375 12.62109375)"/><path d="M840 1960h21.33v20H840z" stroke="#000" stroke-opacity="0" stroke-width="2" fill="#fff" fill-opacity="0"/><use xlink:href="#l" transform="matrix(1,0,0,1,844.9999999999998,1965) translate(0.59912109375 12.62109375)"/><path d="M860 1960h21.33v20H860z" stroke="#000" stroke-opacity="0" stroke-width="2" fill="#fff" fill-opacity="0"/><g><use xlink:href="#m" transform="matrix(1,0,0,1,864.9999999999998,1965) translate(0.59912109375 12.62109375)"/></g><defs><path d="M618-117c190 0 238-127 238-340v-954h164v967c0 308-111 471-402 471-273 0-409-156-409-467v-971h164v956c0 225 82 338 245 338" id="n"/><path d="M251-945c-104-289 136-493 421-493 94 0 187 14 280 43l-37 140c-210-82-526-60-528 182 0 85 71 158 211 225 177 85 201 79 309 177 65 59 115 146 115 265 0 265-215 434-465 433-121 0-228-24-319-72l34-141c107 49 201 73 281 73 177 0 311-99 309-272 0-63-18-115-55-159s-105-87-203-134c-169-81-188-73-285-166-30-29-54-63-68-101" id="o"/><path d="M993 0H256v-1411h731v143H420v437h545v143H420v545h573V0" id="p"/><path d="M1229 446H0V315h1229v131" id="q"/><path d="M127-705c1-423 154-732 559-733 133-1 286 39 363 95l-54 129c-94-53-197-80-309-80-130 0-227 48-290 142s-95 243-95 447c0 392 128 588 385 588 109 0 220-33 334-100l51 129C960-11 832 27 686 27c-400 0-560-301-559-732" id="r"/><path d="M1098-705C1098-294 873-4 494 0H209v-1411h278c387-1 611 298 611 706zm-174 0c0-315-144-560-435-563H373v1125h116c292-3 435-245 435-562" id="s"/><path d="M1176 0h-172L848-494H385L227 0H57l461-1411h197zM801-637l-185-584-184 584h369" id="t"/><path d="M1034-1069c0 154-116 253-250 291v4c169 36 296 162 301 354C1091-166 861 0 610 0H209v-1411h391c249-3 434 108 434 342zm-168 4c0-149-124-204-291-203H373v418h192c201 0 301-72 301-215zm47 645c0-200-150-289-366-287H373v564h186c198 3 354-92 354-277" id="u"/><path d="M928 0H287v-143h243v-1125H287v-143h641v143H694v1125h234V0" id="v"/><path d="M1040 0H858L352-1114V0H188v-1411h183L879-307v-1104h161V0" id="w"/><path d="M127-705c0-426 152-731 559-733 133-1 286 39 363 95l-54 129c-94-53-197-80-309-80-129 0-226 47-290 142s-95 244-95 447c0 392 128 588 385 588 97 0 170-20 219-61v-348H651v-142h418v568C840 84 433 68 269-160c-91-127-142-306-142-545" id="x"/><g id="a"><use transform="matrix(0.006618923611111111,0,0,0.006618923611111111,0,0)" xlink:href="#n"/><use transform="matrix(0.006618923611111111,0,0,0.006618923611111111,8.134657118055555,0)" xlink:href="#o"/><use transform="matrix(0.006618923611111111,0,0,0.006618923611111111,16.26931423611111,0)" xlink:href="#p"/><use transform="matrix(0.006618923611111111,0,0,0.006618923611111111,24.403971354166664,0)" xlink:href="#q"/><use transform="matrix(0.006618923611111111,0,0,0.006618923611111111,32.53862847222222,0)" xlink:href="#p"/><use transform="matrix(0.006618923611111111,0,0,0.006618923611111111,40.67328559027778,0)" xlink:href="#r"/><use transform="matrix(0.006618923611111111,0,0,0.006618923611111111,48.807942708333336,0)" xlink:href="#s"/><use transform="matrix(0.006618923611111111,0,0,0.006618923611111111,56.942599826388886,0)" xlink:href="#o"/><use transform="matrix(0.006618923611111111,0,0,0.006618923611111111,65.07725694444444,0)" xlink:href="#t"/><use transform="matrix(0.006618923611111111,0,0,0.006618923611111111,73.2119140625,0)" xlink:href="#q"/><use transform="matrix(0.006618923611111111,0,0,0.006618923611111111,81.34657118055556,0)" xlink:href="#u"/><use transform="matrix(0.006618923611111111,0,0,0.006618923611111111,89.48122829861111,0)" xlink:href="#v"/><use transform="matrix(0.006618923611111111,0,0,0.006618923611111111,97.61588541666667,0)" xlink:href="#w"/><use transform="matrix(0.006618923611111111,0,0,0.006618923611111111,105.75054253472223,0)" xlink:href="#s"/><use transform="matrix(0.006618923611111111,0,0,0.006618923611111111,113.88519965277777,0)" xlink:href="#v"/><use transform="matrix(0.006618923611111111,0,0,0.006618923611111111,122.01985677083333,0)" xlink:href="#w"/><use transform="matrix(0.006618923611111111,0,0,0.006618923611111111,130.15451388888889,0)" xlink:href="#x"/></g><g id="b"><use transform="matrix(0.006618923611111111,0,0,0.006618923611111111,0,0)" xlink:href="#n"/><use transform="matrix(0.006618923611111111,0,0,0.006618923611111111,8.134657118055555,0)" xlink:href="#w"/><use transform="matrix(0.006618923611111111,0,0,0.006618923611111111,16.26931423611111,0)" xlink:href="#n"/><use transform="matrix(0.006618923611111111,0,0,0.006618923611111111,24.403971354166664,0)" xlink:href="#o"/><use transform="matrix(0.006618923611111111,0,0,0.006618923611111111,32.53862847222222,0)" xlink:href="#p"/><use transform="matrix(0.006618923611111111,0,0,0.006618923611111111,40.67328559027778,0)" xlink:href="#s"/></g><path d="M686 27c-142 0-259-82-315-177v562H215v-1454h156v135c60-87 186-160 327-160 262 0 385 253 385 535 0 283-133 559-397 559zm234-551c0-208-79-408-269-408-110 0-203 60-280 180v433c47 96 147 206 274 206 186 0 275-209 275-411" id="y"/><path d="M862-668c-1-164-37-264-184-264-95 0-198 59-307 178V0H215v-1411h156v522c112-119 230-178 354-178 195 0 293 118 293 354V0H862v-668" id="z"/><path d="M627-1067c255 1 431 226 422 502v49H334c-8 217 149 407 354 407 95 0 192-17 293-51l27 125C916 6 809 27 686 27c-314 0-516-228-516-551 0-303 173-543 457-543zm252 424c8-145-114-289-246-289-166 0-282 128-289 289h535" id="A"/><path d="M686-885c46-86 118-182 225-182 126 0 189 113 189 338V0H944v-684c6-255-92-321-196-162-38 57-56 88-56 94V0H537v-684c6-254-92-321-195-162-38 57-57 88-57 94V0H129v-1042h150v157c46-86 117-182 225-182 99 0 163 89 182 182" id="B"/><path d="M793-909c-150 0-257 142-312 235V0H326v-1042h155v211c120-239 312-290 553-183l-63 150c-69-30-128-45-178-45" id="C"/><path d="M612-932c-94 1-239 48-305 86l-41-112c142-73 274-109 396-109 237 0 356 126 356 377 0 231-19 498 26 690H889c-13-42-19-98-19-168C781-38 661 27 508 27c-204 0-368-226-262-431 92-179 357-192 616-210 12-205-66-321-250-318zm-59 809c139-4 242-91 309-186v-189c-233 28-302 11-426 97-40 28-57 71-57 122-2 94 78 159 174 156" id="D"/><path d="M942 0H516v-1276H244v-135h428v1276h270V0" id="E"/><g id="c"><use transform="matrix(0.006618923611111111,0,0,0.006618923611111111,0,0)" xlink:href="#p"/><use transform="matrix(0.006618923611111111,0,0,0.006618923611111111,8.134657118055555,0)" xlink:href="#y"/><use transform="matrix(0.006618923611111111,0,0,0.006618923611111111,16.26931423611111,0)" xlink:href="#z"/><use transform="matrix(0.006618923611111111,0,0,0.006618923611111111,24.403971354166664,0)" xlink:href="#A"/><use transform="matrix(0.006618923611111111,0,0,0.006618923611111111,32.53862847222222,0)" xlink:href="#B"/><use transform="matrix(0.006618923611111111,0,0,0.006618923611111111,40.67328559027778,0)" xlink:href="#A"/><use transform="matrix(0.006618923611111111,0,0,0.006618923611111111,48.807942708333336,0)" xlink:href="#C"/><use transform="matrix(0.006618923611111111,0,0,0.006618923611111111,56.942599826388886,0)" xlink:href="#D"/><use transform="matrix(0.006618923611111111,0,0,0.006618923611111111,65.07725694444444,0)" xlink:href="#E"/></g><g id="d"><use transform="matrix(0.006618923611111111,0,0,0.006618923611111111,0,0)" xlink:href="#p"/><use transform="matrix(0.006618923611111111,0,0,0.006618923611111111,8.134657118055555,0)" xlink:href="#r"/><use transform="matrix(0.006618923611111111,0,0,0.006618923611111111,16.26931423611111,0)" xlink:href="#r"/></g><path d="M1069 0H911v-1210L698-631H543l-213-579V0H172v-1411h213l236 643 235-643h213V0" id="F"/><path d="M145-522c0-307 172-545 469-545 296 0 469 239 469 545 0 308-172 549-469 549-298 0-469-240-469-549zm164 2c0 210 103 411 305 411 199 0 306-205 306-411 0-217-100-412-306-412-208 0-305 192-305 412" id="G"/><path d="M145-537c0-273 140-530 396-530 131 0 237 53 317 160v-504h156V0H858v-150C803-58 673 27 532 27c-119 0-214-53-283-159S145-374 145-537zm164 9c0 205 79 415 264 415 105 0 175-59 232-128 35-43 53-69 53-78v-433c-75-120-165-180-270-180-189 1-279 200-279 404" id="H"/><g id="e"><use transform="matrix(0.006618923611111111,0,0,0.006618923611111111,0,0)" xlink:href="#F"/><use transform="matrix(0.006618923611111111,0,0,0.006618923611111111,8.134657118055555,0)" xlink:href="#G"/><use transform="matrix(0.006618923611111111,0,0,0.006618923611111111,16.26931423611111,0)" xlink:href="#H"/><use transform="matrix(0.006618923611111111,0,0,0.006618923611111111,24.403971354166664,0)" xlink:href="#A"/></g><path d="M1036-1294L477 0H309l551-1268H199v-143h837v117" id="I"/><use transform="matrix(0.0087890625,0,0,0.0087890625,0,0)" xlink:href="#I" id="f"/><path d="M1067-432c0 248-147 459-389 459-151 0-267-71-358-207-178-265-169-782 6-1043 95-141 217-215 376-215 110 0 205 16 285 49l-26 146c-212-78-403-83-508 105-59 105-91 238-91 403 88-71 184-107 287-107 233 0 418 175 418 410zm-174 14c0-165-86-281-248-280-102 0-195 35-278 104 0 121 28 230 85 329s128 148 214 148c158-2 227-131 227-301" id="J"/><use transform="matrix(0.0087890625,0,0,0.0087890625,0,0)" xlink:href="#J" id="g"/><path d="M827-432c0-176-103-292-268-293-57 0-114 11-170 33l-98-45v-674h645v143H434v426c313-85 565 119 565 410 0 249-214 459-464 459-123 0-227-21-310-62l33-139c91 38 184 57 281 57 178 0 288-128 288-315" id="K"/><use transform="matrix(0.0087890625,0,0,0.0087890625,0,0)" xlink:href="#K" id="h"/><path d="M1073-326H899V0H735v-326H121v-125l557-960h221v942h174v143zM735-469v-780L287-469h448" id="L"/><use transform="matrix(0.0087890625,0,0,0.0087890625,0,0)" xlink:href="#L" id="i"/><path d="M956-1083c0 148-127 296-254 319v6c151 38 281 170 285 346 6 246-239 439-487 439-112 0-212-25-301-74l32-135c93 43 184 65 275 65 164 0 313-120 309-284-5-191-180-292-397-277v-135c192 7 366-89 366-268-1-144-117-215-270-213-73 0-154 20-244 59l-22-141c91-41 182-62 274-62 230 0 434 137 434 355" id="M"/><use transform="matrix(0.0087890625,0,0,0.0087890625,0,0)" xlink:href="#M" id="j"/><path d="M541-1438c242 0 424 152 420 391-4 206-110 362-212 492-61 77-183 214-362 412h594V0H205v-119c197-219 325-366 383-441 97-126 195-282 198-480 2-161-107-254-272-254-66 0-155 20-266 61l-23-141c101-43 206-64 316-64" id="N"/><use transform="matrix(0.0087890625,0,0,0.0087890625,0,0)" xlink:href="#N" id="k"/><path d="M1018 0H276v-143h299v-1096l-282 141v-164l305-157h141v1276h279V0" id="O"/><use transform="matrix(0.0087890625,0,0,0.0087890625,0,0)" xlink:href="#O" id="l"/><path d="M612-1438c149 0 259 67 344 192 155 228 156 840 4 1076C877-41 766 27 612 27c-149 0-259-67-344-192-156-228-157-840-4-1075 83-128 195-198 348-198zm0 1321c99 0 167-50 220-141 90-155 90-740 0-894-53-90-121-140-220-140-97 0-165 50-218 143-91 159-90 733 0 891 52 92 120 141 218 141zM460-705c0-83 66-150 148-150s150 69 150 150c0 82-69 158-150 158-80 0-148-76-148-158" id="P"/><use transform="matrix(0.0087890625,0,0,0.0087890625,0,0)" xlink:href="#P" id="m"/></defs></g></svg>