<svg xmlns="http://www.w3.org/2000/svg" xmlns:xlink="http://www.w3.org/1999/xlink" xmlns:lucid="lucid" width="1360" height="1324"><rect width="100%" height="100%" fill="white"/><g transform="translate(0 -90)" lucid:page-tab-id="0_0"><path d="M60 681.33V200h60v481.33z" stroke="#000" stroke-width="2" fill="#c7e8ac"/><use xlink:href="#a" transform="matrix(6.123233995736766e-17,-1,1,6.123233995736766e-17,65.00000000000023,676.3333333333335) translate(190.51296296296297 30.377777777777776)"/><path d="M240 200h320v80H240z" stroke="#000" stroke-width="2" fill="#fff"/><use xlink:href="#b" transform="matrix(1,0,0,1,245,205) translate(82.21141975308643 39.48888888888889)"/><use xlink:href="#c" transform="matrix(1,0,0,1,245,205) translate(148.17314814814813 39.48888888888889)"/><path d="M240 280h320v80H240z" stroke="#000" stroke-width="2" fill="#fff"/><use xlink:href="#d" transform="matrix(1,0,0,1,245,285) translate(132.55555555555557 39.48888888888889)"/><path d="M240 360h320v80H240z" stroke="#000" stroke-width="2" fill="#fff"/><use xlink:href="#e" transform="matrix(1,0,0,1,245,365) translate(49.16820987654323 39.48888888888889)"/><use xlink:href="#f" transform="matrix(1,0,0,1,245,365) translate(102.66080246913582 39.48888888888889)"/><use xlink:href="#g" transform="matrix(1,0,0,1,245,365) translate(123.85833333333333 39.48888888888889)"/><use xlink:href="#h" transform="matrix(1,0,0,1,245,365) translate(204.78302469135804 39.48888888888889)"/><path d="M240 440h320v80H240z" stroke="#000" stroke-width="2" fill="#fff"/><use xlink:href="#i" transform="matrix(1,0,0,1,245,445) translate(17.37191358024694 39.48888888888889)"/><use xlink:href="#f" transform="matrix(1,0,0,1,245,445) translate(104.59351851851854 39.48888888888889)"/><use xlink:href="#j" transform="matrix(1,0,0,1,245,445) translate(125.79104938271607 39.48888888888889)"/><use xlink:href="#k" transform="matrix(1,0,0,1,245,445) translate(227.91327160493825 39.48888888888889)"/><path d="M240 520h320v80H240z" stroke="#000" stroke-width="2" fill="#fff"/><use xlink:href="#l" transform="matrix(1,0,0,1,245,525) translate(125.13641975308643 39.48888888888889)"/><path d="M240 600h320v80H240z" stroke="#000" stroke-width="2" fill="#fff"/><use xlink:href="#m" transform="matrix(1,0,0,1,245,605) translate(44.80401234567904 39.48888888888889)"/><use xlink:href="#n" transform="matrix(1,0,0,1,245,605) translate(159.33302469135805 39.48888888888889)"/><use xlink:href="#o" transform="matrix(1,0,0,1,245,605) translate(226.54166666666666 39.48888888888889)"/><path d="M60 1020.33V860h60v160.33z" stroke="#000" stroke-width="2" fill="#c1e4f7"/><use xlink:href="#p" transform="matrix(6.123233995736766e-17,-1,1,6.123233995736766e-17,65.00000000000023,1015.3333333333335) translate(24.03765432098767 30.377777777777776)"/><path d="M240 860h320v80H240z" stroke="#000" stroke-width="2" fill="#fff"/><use xlink:href="#q" transform="matrix(1,0,0,1,245,865) translate(120.70987654320989 39.48888888888889)"/><path d="M240 940h320v80H240z" stroke="#000" stroke-width="2" fill="#fff"/><use xlink:href="#r" transform="matrix(1,0,0,1,245,945) translate(42.93364197530866 39.48888888888889)"/><use xlink:href="#s" transform="matrix(1,0,0,1,245,945) translate(70.36574074074075 39.48888888888889)"/><use xlink:href="#t" transform="matrix(1,0,0,1,245,945) translate(89.69290123456791 39.48888888888889)"/><use xlink:href="#s" transform="matrix(1,0,0,1,245,945) translate(197.98734567901232 39.48888888888889)"/><use xlink:href="#u" transform="matrix(1,0,0,1,245,945) translate(217.3145061728395 39.48888888888889)"/><path d="M60 1360v-160h60v160z" stroke="#000" stroke-width="2" fill="#ffdba9"/><use xlink:href="#v" transform="matrix(6.123233995736766e-17,-1,1,6.123233995736766e-17,65,1355.0000000000002) translate(13.155555555555573 30.377777777777776)"/><path d="M240 1200h320v80H240z" stroke="#000" stroke-width="2" fill="#fff"/><use xlink:href="#w" transform="matrix(1,0,0,1,245,1205) translate(89.03827160493829 39.48888888888889)"/><use xlink:href="#x" transform="matrix(1,0,0,1,245,1205) translate(159.98765432098764 39.48888888888889)"/><path d="M240 1280h320v80H240z" stroke="#000" stroke-width="2" fill="#fff"/><use xlink:href="#y" transform="matrix(1,0,0,1,245,1285) translate(78.37716049382718 39.48888888888889)"/><use xlink:href="#z" transform="matrix(1,0,0,1,245,1285) translate(180.49938271604935 39.48888888888889)"/><path d="M740 500h180v40H740z" stroke="#000" stroke-width="2"/><use xlink:href="#A" transform="matrix(1,0,0,1,745,505) translate(58.525000000000006 18.599999999999998)"/><path d="M562 560h88v-40h58.25" stroke="#000" stroke-width="2" fill="none"/><path d="M562.03 561H561v-2h1.03z"/><path d="M737.6 520l-14.86 14.85L707.6 520l15.14-14.85z" stroke="#000" stroke-width="2"/><path d="M740 540h180v60H740z" stroke="#000" stroke-width="2" fill="#fff"/><use xlink:href="#B" transform="matrix(1,0,0,1,745,545) translate(36.07500000000001 28.599999999999998)"/><use xlink:href="#C" transform="matrix(1,0,0,1,745,545) translate(88.975 28.599999999999998)"/><path d="M740 600h180v60H740z" stroke="#000" stroke-width="2" fill="#fff"/><use xlink:href="#B" transform="matrix(1,0,0,1,745,605) translate(38.05000000000001 28.599999999999998)"/><use xlink:href="#D" transform="matrix(1,0,0,1,745,605) translate(90.95 28.599999999999998)"/><path d="M740 660h180v60H740z" stroke="#000" stroke-width="2" fill="#fff"/><use xlink:href="#B" transform="matrix(1,0,0,1,745,665) translate(28.600000000000016 28.599999999999998)"/><use xlink:href="#E" transform="matrix(1,0,0,1,745,665) translate(81.5 28.599999999999998)"/><path d="M740 160h180v40H740z" stroke="#000" stroke-width="2"/><use xlink:href="#F" transform="matrix(1,0,0,1,745,165.0000000000001) translate(8.675000000000026 18.599999999999998)"/><use xlink:href="#G" transform="matrix(1,0,0,1,745,165.0000000000001) translate(95.525 18.599999999999998)"/><path d="M740 200h180v60H740z" stroke="#000" stroke-width="2" fill="#fff"/><use xlink:href="#H" transform="matrix(1,0,0,1,745,205.0000000000001) translate(62.525000000000006 28.599999999999998)"/><path d="M740 260h180v60H740z" stroke="#000" stroke-width="2" fill="#fff"/><use xlink:href="#I" transform="matrix(1,0,0,1,745,265.0000000000001) translate(57.50000000000001 28.599999999999998)"/><path d="M740 320h180v60H740z" stroke="#000" stroke-width="2" fill="#fff"/><use xlink:href="#J" transform="matrix(1,0,0,1,745,325.0000000000001) translate(64.5 28.599999999999998)"/><path d="M562 320h88V180h58.25" stroke="#000" stroke-width="2" fill="none"/><path d="M562.03 321H561v-2h1.03z"/><path d="M737.6 180l-14.86 14.85L707.6 180l15.14-14.85zM1100 440h180v40h-180z" stroke="#000" stroke-width="2"/><use xlink:href="#K" transform="matrix(1,0,0,1,1105,445) translate(12.600000000000009 18.599999999999998)"/><use xlink:href="#L" transform="matrix(1,0,0,1,1105,445) translate(104.45 18.599999999999998)"/><path d="M1100 480h180v60h-180z" stroke="#000" stroke-width="2" fill="#fff"/><use xlink:href="#M" transform="matrix(1,0,0,1,1105,485) translate(63.39648437500001 29.5)"/><path d="M1100 540h180v60h-180z" stroke="#000" stroke-width="2" fill="#fff"/><use xlink:href="#B" transform="matrix(1,0,0,1,1105,545) translate(20.100000000000023 17.800000000000004)"/><use xlink:href="#N" transform="matrix(1,0,0,1,1105,545) translate(73.00000000000001 17.800000000000004)"/><use xlink:href="#O" transform="matrix(1,0,0,1,1105,545) translate(55.025000000000006 39.4)"/><path d="M1100 600h180v60h-180z" stroke="#000" stroke-width="2" fill="#fff"/><use xlink:href="#B" transform="matrix(1,0,0,1,1105,605) translate(28.600000000000016 28.599999999999998)"/><use xlink:href="#E" transform="matrix(1,0,0,1,1105,605) translate(81.5 28.599999999999998)"/><path d="M922 520h2.98m3.97 0h5.96m3.98 0h5.96m3.98 0h5.95m3.98 0h5.96m3.98 0H970v-4.64m0-3.97v-5.97m0-3.97v-5.96m0-3.97v-5.96m0-3.98v-5.97m0-3.97v-5.96m0-3.97V460h4.23m3.97 0h5.96m3.97 0h5.96m3.96 0h5.96m3.98 0h5.96m3.97 0h5.96m3.96 0h5.96m3.97 0h5.95m3.97 0h5.96m3.98 0h5.95m4 0h5.95m3.97 0h2.98" stroke="#000" stroke-width="2" fill="none"/><path d="M922.03 521H921v-2h1.03z"/><path d="M1095.76 460l-14.26 4.64v-9.28z" stroke="#000" stroke-width="2" fill="#fff"/><path d="M1100 760h180v40h-180z" stroke="#000" stroke-width="2"/><use xlink:href="#P" transform="matrix(1,0,0,1,1105,765) translate(10.125000000000014 18.599999999999998)"/><use xlink:href="#L" transform="matrix(1,0,0,1,1105,765) translate(106.925 18.599999999999998)"/><path d="M1100 800h180v60h-180z" stroke="#000" stroke-width="2" fill="#fff"/><use xlink:href="#Q" transform="matrix(1,0,0,1,1105,805) translate(36.39208984375001 29.5)"/><path d="M1100 860h180v60h-180z" stroke="#000" stroke-width="2" fill="#fff"/><use xlink:href="#B" transform="matrix(1,0,0,1,1105,865) translate(31.05000000000001 28.599999999999998)"/><use xlink:href="#R" transform="matrix(1,0,0,1,1105,865) translate(83.95 28.599999999999998)"/><path d="M1100 920h180v60h-180z" stroke="#000" stroke-width="2" fill="#fff"/><use xlink:href="#S" transform="matrix(1,0,0,1,1105,924.9999999999999) translate(61.050000000000004 17.800000000000004)"/><use xlink:href="#T" transform="matrix(1,0,0,1,1105,924.9999999999999) translate(7.125 39.4)"/><path d="M922 520h3m3.97 0h5.98m4 0h5.97m3.98 0h5.98m4 0h5.97m3.98 0H970v4.8m0 4v5.97m0 4v5.97m0 3.98v5.98m0 4v5.97m0 3.98v5.98m0 4v5.97m0 3.98v5.98m0 4v5.96m0 4v5.97m0 3.97v5.98m0 4v5.97m0 3.98v5.98m0 4v5.97m0 3.98v5.98m0 4v5.97m0 4v5.97m0 3.98v5.98m0 4v5.97m0 3.98v5.98m0 4v5.97m0 3.98v5.98m0 4V744m0 4v5.97m0 3.97v5.98m0 4v5.97m0 3.98v2.1h3.88m4 0h5.96m4 0h5.97m4 0h5.97m4 0h5.97m3.98 0h5.98m4 0h5.97m3.98 0h5.98m4 0h5.96m3.98 0h5.98m3.98 0h5.98m4 0h2.98" stroke="#000" stroke-width="2" fill="none"/><path d="M922.03 521H921v-2h1.03z"/><path d="M1095.76 780l-14.26 4.64v-9.28z" stroke="#000" stroke-width="2" fill="#fff"/><path d="M1282 570h39V180H951.75" stroke="#000" stroke-width="2" fill="none"/><path d="M1282.03 571H1281v-2h1.03z"/><path d="M922.4 180l14.86-14.85L952.4 180l-15.14 14.85z" stroke="#000" stroke-width="2"/><path d="M560 40h240v60H560z" stroke="#000" stroke-opacity="0" stroke-width="2" fill="#fff" fill-opacity="0"/><use xlink:href="#U" transform="matrix(1,0,0,1,564.9999999999999,45) translate(33.09261067708334 35.43126085069444)"/><use xlink:href="#V" transform="matrix(1,0,0,1,564.9999999999999,45) translate(158.54345703125 35.43126085069444)"/><path d="M562 1320h88v-100h58.25" stroke="#000" stroke-width="2" fill="none"/><path d="M562.03 1321H561v-2h1.03z"/><path d="M737.6 1220l-14.86 14.85L707.6 1220l15.14-14.85z" stroke="#000" stroke-width="2"/><path d="M140 120h100v60H140z" stroke="#000" stroke-width="2" fill="#e5e5e5"/><use xlink:href="#W" transform="matrix(1,0,0,1,145.00000000000023,125) translate(10.482098765432099 18.688888888888886)"/><use xlink:href="#X" transform="matrix(1,0,0,1,145.00000000000023,125) translate(48.962345679012344 18.688888888888886)"/><use xlink:href="#Y" transform="matrix(1,0,0,1,145.00000000000023,125) translate(21.460802469135803 37.62222222222222)"/><path d="M140 200h100v80H140z" stroke="#000" stroke-width="2" fill="#e5e5e5"/><use xlink:href="#Z" transform="matrix(1,0,0,1,145.00000000000023,205) translate(40.765896267361114 38.94444444444444)"/><path d="M140 280h100v80H140z" stroke="#000" stroke-width="2" fill="#e5e5e5"/><use xlink:href="#aa" transform="matrix(1,0,0,1,145.00000000000023,285.0000000000001) translate(21.829481336805554 38.94444444444444)"/><path d="M140 360h100v80H140z" stroke="#000" stroke-width="2" fill="#e5e5e5"/><use xlink:href="#ab" transform="matrix(1,0,0,1,145.00000000000023,365.0000000000001) translate(40.765896267361114 38.94444444444444)"/><path d="M140 440h100v80H140z" stroke="#000" stroke-width="2" fill="#e5e5e5"/><use xlink:href="#ab" transform="matrix(1,0,0,1,145.00000000000023,445.0000000000001) translate(40.765896267361114 38.94444444444444)"/><path d="M140 520h100v80H140z" stroke="#000" stroke-width="2" fill="#e5e5e5"/><use xlink:href="#ac" transform="matrix(1,0,0,1,145.00000000000023,525) translate(17.095377604166664 38.94444444444444)"/><path d="M140 600h100v80H140z" stroke="#000" stroke-width="2" fill="#e5e5e5"/><use xlink:href="#ad" transform="matrix(1,0,0,1,145.00000000000023,605) translate(21.829481336805554 38.94444444444444)"/><path d="M140 860h100v80H140z" stroke="#000" stroke-width="2" fill="#e5e5e5"/><use xlink:href="#Z" transform="matrix(1,0,0,1,145.00000000000023,865.0000000000001) translate(40.765896267361114 38.94444444444444)"/><path d="M140 940h100v80H140z" stroke="#000" stroke-width="2" fill="#e5e5e5"/><use xlink:href="#ae" transform="matrix(1,0,0,1,145,945.0000000000001) translate(21.829481336805554 38.94444444444444)"/><path d="M140 1200h100v80H140z" stroke="#000" stroke-width="2" fill="#e5e5e5"/><use xlink:href="#ad" transform="matrix(1,0,0,1,145.00000000000023,1205) translate(21.829481336805554 38.94444444444444)"/><path d="M140 1280h100v80H140z" stroke="#000" stroke-width="2" fill="#e5e5e5"/><use xlink:href="#af" transform="matrix(1,0,0,1,145.00000000000023,1285) translate(17.095377604166664 38.94444444444444)"/><path d="M680 200h60v60h-60z" stroke="#000" stroke-width="2" fill="#e5e5e5"/><use xlink:href="#ab" transform="matrix(1,0,0,1,685,205.0000000000001) translate(20.76589626736111 28.944444444444443)"/><path d="M680 260h60v60h-60z" stroke="#000" stroke-width="2" fill="#e5e5e5"/><use xlink:href="#ab" transform="matrix(1,0,0,1,685,265.0000000000001) translate(20.76589626736111 28.944444444444443)"/><path d="M680 320h60v60h-60z" stroke="#000" stroke-width="2" fill="#e5e5e5"/><use xlink:href="#ag" transform="matrix(1,0,0,1,685,325) translate(1.8294813368055536 28.944444444444443)"/><path d="M680 540h60v60h-60z" stroke="#000" stroke-width="2" fill="#e5e5e5"/><use xlink:href="#ab" transform="matrix(1,0,0,1,685,545) translate(20.76589626736111 28.944444444444443)"/><path d="M680 600h60v60h-60z" stroke="#000" stroke-width="2" fill="#e5e5e5"/><use xlink:href="#ah" transform="matrix(1,0,0,1,685,605) translate(1.8294813368055536 28.944444444444443)"/><path d="M680 660h60v60h-60z" stroke="#000" stroke-width="2" fill="#e5e5e5"/><use xlink:href="#ai" transform="matrix(1,0,0,1,685,664.9999999999999) translate(1.8294813368055536 28.944444444444443)"/><path d="M1040 480h60v60h-60z" stroke="#000" stroke-width="2" fill="#e5e5e5"/><use xlink:href="#ab" transform="matrix(1,0,0,1,1045,485.0000000000001) translate(20.76589626736111 28.944444444444443)"/><path d="M1040 540h60v60h-60z" stroke="#000" stroke-width="2" fill="#e5e5e5"/><use xlink:href="#aa" transform="matrix(1,0,0,1,1045,545.0000000000001) translate(1.8294813368055536 28.944444444444443)"/><path d="M1040 600h60v60h-60z" stroke="#000" stroke-width="2" fill="#e5e5e5"/><use xlink:href="#ai" transform="matrix(1,0,0,1,1045,605) translate(1.8294813368055536 28.944444444444443)"/><path d="M1040 800h60v60h-60z" stroke="#000" stroke-width="2" fill="#e5e5e5"/><use xlink:href="#ab" transform="matrix(1,0,0,1,1045,805.0000000000001) translate(20.76589626736111 28.944444444444443)"/><path d="M1040 860h60v60h-60z" stroke="#000" stroke-width="2" fill="#e5e5e5"/><use xlink:href="#aj" transform="matrix(1,0,0,1,1045,865.0000000000001) translate(20.76589626736111 28.944444444444443)"/><path d="M1040 920h60v60h-60z" stroke="#000" stroke-width="2" fill="#e5e5e5"/><use xlink:href="#ak" transform="matrix(1,0,0,1,1045,925) translate(1.8294813368055536 28.944444444444443)"/><path d="M1100 980h180v60h-180z" stroke="#000" stroke-width="2" fill="#fff"/><use xlink:href="#B" transform="matrix(1,0,0,1,1105,985) translate(28.600000000000016 28.599999999999998)"/><use xlink:href="#E" transform="matrix(1,0,0,1,1105,985) translate(81.5 28.599999999999998)"/><path d="M1040 980h60v60h-60z" stroke="#000" stroke-width="2" fill="#e5e5e5"/><g><use xlink:href="#ai" transform="matrix(1,0,0,1,1045,985.0000000000002) translate(1.8294813368055536 28.944444444444443)"/></g><path d="M740 1200h180v40H740z" stroke="#000" stroke-width="2"/><g><use xlink:href="#al" transform="matrix(1,0,0,1,745,1205) translate(18.675000000000026 18.599999999999998)"/><use xlink:href="#am" transform="matrix(1,0,0,1,745,1205) translate(106.475 18.599999999999998)"/></g><path d="M740 1240h180v60H740z" stroke="#000" stroke-width="2" fill="#fff"/><g><use xlink:href="#an" transform="matrix(1,0,0,1,745,1245) translate(36.392089843750014 29.5)"/><use xlink:href="#ao" transform="matrix(1,0,0,1,745,1245) translate(101.20263671875 29.5)"/></g><path d="M740 1300h180v60H740z" stroke="#000" stroke-width="2" fill="#fff"/><g><use xlink:href="#an" transform="matrix(1,0,0,1,745,1305) translate(36.392089843750014 29.5)"/><use xlink:href="#ap" transform="matrix(1,0,0,1,745,1305) translate(101.20263671875 29.5)"/></g><path d="M680 1240h60v60h-60z" stroke="#000" stroke-width="2" fill="#e5e5e5"/><g><use xlink:href="#aq" transform="matrix(1,0,0,1,685,1245) translate(1.8294813368055536 28.944444444444443)"/></g><path d="M680 1300h60v60h-60z" stroke="#000" stroke-width="2" fill="#e5e5e5"/><g><use xlink:href="#aq" transform="matrix(1,0,0,1,685,1305) translate(1.8294813368055536 28.944444444444443)"/></g><path d="M740 840h180v40H740z" stroke="#000" stroke-width="2"/><g><use xlink:href="#ar" transform="matrix(1,0,0,1,745,845) translate(1.200000000000017 18.599999999999998)"/></g><path d="M740 880h180v60H740z" stroke="#000" stroke-width="2" fill="#fff"/><g><use xlink:href="#as" transform="matrix(1,0,0,1,745,885) translate(76.5 28.599999999999998)"/></g><path d="M740 940h180v60H740z" stroke="#000" stroke-width="2" fill="#fff"/><g><use xlink:href="#at" transform="matrix(1,0,0,1,745,945) translate(44.07500000000001 28.599999999999998)"/></g><path d="M740 1000h180v60H740z" stroke="#000" stroke-width="2" fill="#fff"/><g><use xlink:href="#au" transform="matrix(1,0,0,1,745,1005) translate(65.05000000000001 28.599999999999998)"/></g><path d="M680 880h60v60h-60z" stroke="#000" stroke-width="2" fill="#e5e5e5"/><g><use xlink:href="#Z" transform="matrix(1,0,0,1,685,885) translate(20.76589626736111 28.944444444444443)"/></g><path d="M680 940h60v60h-60z" stroke="#000" stroke-width="2" fill="#e5e5e5"/><g><use xlink:href="#av" transform="matrix(1,0,0,1,685,945) translate(1.8294813368055536 28.944444444444443)"/></g><path d="M680 1000h60v60h-60z" stroke="#000" stroke-width="2" fill="#e5e5e5"/><g><use xlink:href="#aw" transform="matrix(1,0,0,1,685,1005) translate(6.563585069444443 28.944444444444443)"/></g><path d="M562 980h88V860h58.25" stroke="#000" stroke-width="2" fill="none"/><path d="M562.03 981H561v-2h1.03z"/><path d="M737.6 860l-14.86 14.85L707.6 860l15.14-14.85z" stroke="#000" stroke-width="2"/><defs><path d="M186 0v-106H76V0H24v-248h52v99h110v-99h50V0h-50" id="ax"/><path d="M185-48c-13 30-37 53-82 52C43 2 14-33 14-96s30-98 90-98c62 0 83 45 84 108H66c0 31 8 55 39 56 18 0 30-7 34-22zm-45-69c5-46-57-63-70-21-2 6-4 13-4 21h74" id="ay"/><path d="M133-34C117-15 103 5 69 4 32 3 11-16 11-54c-1-60 55-63 116-61 1-26-3-47-28-47-18 1-26 9-28 27l-52-2c7-38 36-58 82-57s74 22 75 68l1 82c-1 14 12 18 25 15v27c-30 8-71 5-69-32zm-48 3c29 0 43-24 42-57-32 0-66-3-65 30 0 17 8 27 23 27" id="az"/><path d="M88-194c31-1 46 15 58 34l-1-101h50l1 261h-48c-2-10 0-23-3-31C134-8 116 4 84 4 32 4 16-41 15-95c0-56 19-97 73-99zm17 164c33 0 40-30 41-66 1-37-9-64-41-64s-38 30-39 65c0 43 13 65 39 65" id="aA"/><path d="M135-150c-39-12-60 13-60 57V0H25l-1-190h47c2 13-1 29 3 40 6-28 27-53 61-41v41" id="aB"/><g id="a"><use transform="matrix(0.07469135802469135,0,0,0.07469135802469135,0,0)" xlink:href="#ax"/><use transform="matrix(0.07469135802469135,0,0,0.07469135802469135,19.34506172839506,0)" xlink:href="#ay"/><use transform="matrix(0.07469135802469135,0,0,0.07469135802469135,34.28333333333333,0)" xlink:href="#az"/><use transform="matrix(0.07469135802469135,0,0,0.07469135802469135,49.2216049382716,0)" xlink:href="#aA"/><use transform="matrix(0.07469135802469135,0,0,0.07469135802469135,65.579012345679,0)" xlink:href="#ay"/><use transform="matrix(0.07469135802469135,0,0,0.07469135802469135,80.51728395061727,0)" xlink:href="#aB"/></g><path d="M240 0l2-218c-23 76-54 145-80 218h-23L58-218 59 0H30v-248h44l77 211c21-75 51-140 76-211h43V0h-30" id="aC"/><path d="M141-36C126-15 110 5 73 4 37 3 15-17 15-53c-1-64 63-63 125-63 3-35-9-54-41-54-24 1-41 7-42 31l-33-3c5-37 33-52 76-52 45 0 72 20 72 64v82c-1 20 7 32 28 27v20c-31 9-61-2-59-35zM48-53c0 20 12 33 32 33 41-3 63-29 60-74-43 2-92-5-92 41" id="aD"/><path d="M177-190C167-65 218 103 67 71c-23-6-38-20-44-43l32-5c15 47 100 32 89-28v-30C133-14 115 1 83 1 29 1 15-40 15-95c0-56 16-97 71-98 29-1 48 16 59 35 1-10 0-23 2-32h30zM94-22c36 0 50-32 50-73 0-42-14-75-50-75-39 0-46 34-46 75s6 73 46 73" id="aE"/><path d="M24-231v-30h32v30H24zM24 0v-190h32V0H24" id="aF"/><path d="M96-169c-40 0-48 33-48 73s9 75 48 75c24 0 41-14 43-38l32 2c-6 37-31 61-74 61-59 0-76-41-82-99-10-93 101-131 147-64 4 7 5 14 7 22l-32 3c-4-21-16-35-41-35" id="aG"/><g id="b"><use transform="matrix(0.06234567901234567,0,0,0.06234567901234567,0,0)" xlink:href="#aC"/><use transform="matrix(0.06234567901234567,0,0,0.06234567901234567,18.641358024691353,0)" xlink:href="#aD"/><use transform="matrix(0.06234567901234567,0,0,0.06234567901234567,31.110493827160486,0)" xlink:href="#aE"/><use transform="matrix(0.06234567901234567,0,0,0.06234567901234567,43.57962962962962,0)" xlink:href="#aF"/><use transform="matrix(0.06234567901234567,0,0,0.06234567901234567,48.50493827160493,0)" xlink:href="#aG"/></g><path d="M190 0L58-211 59 0H30v-248h39L202-35l-2-213h31V0h-41" id="aH"/><path d="M84 4C-5 8 30-112 23-190h32v120c0 31 7 50 39 49 72-2 45-101 50-169h31l1 190h-30c-1-10 1-25-2-33-11 22-28 36-60 37" id="aI"/><path d="M210-169c-67 3-38 105-44 169h-31v-121c0-29-5-50-35-48C34-165 62-65 56 0H25l-1-190h30c1 10-1 24 2 32 10-44 99-50 107 0 11-21 27-35 58-36 85-2 47 119 55 194h-31v-121c0-29-5-49-35-48" id="aJ"/><path d="M115-194c53 0 69 39 70 98 0 66-23 100-70 100C84 3 66-7 56-30L54 0H23l1-261h32v101c10-23 28-34 59-34zm-8 174c40 0 45-34 45-75 0-40-5-75-45-74-42 0-51 32-51 76 0 43 10 73 51 73" id="aK"/><path d="M100-194c63 0 86 42 84 106H49c0 40 14 67 53 68 26 1 43-12 49-29l28 8c-11 28-37 45-77 45C44 4 14-33 15-96c1-61 26-98 85-98zm52 81c6-60-76-77-97-28-3 7-6 17-6 28h103" id="aL"/><path d="M114-163C36-179 61-72 57 0H25l-1-190h30c1 12-1 29 2 39 6-27 23-49 58-41v29" id="aM"/><g id="c"><use transform="matrix(0.06234567901234567,0,0,0.06234567901234567,0,0)" xlink:href="#aH"/><use transform="matrix(0.06234567901234567,0,0,0.06234567901234567,16.147530864197527,0)" xlink:href="#aI"/><use transform="matrix(0.06234567901234567,0,0,0.06234567901234567,28.61666666666666,0)" xlink:href="#aJ"/><use transform="matrix(0.06234567901234567,0,0,0.06234567901234567,47.25802469135802,0)" xlink:href="#aK"/><use transform="matrix(0.06234567901234567,0,0,0.06234567901234567,59.72716049382715,0)" xlink:href="#aL"/><use transform="matrix(0.06234567901234567,0,0,0.06234567901234567,72.19629629629628,0)" xlink:href="#aM"/></g><path d="M194 0L95-120 63-95V0H30v-248h33v124l119-124h40L117-140 236 0h-42" id="aN"/><path d="M205 0l-28-72H64L36 0H1l101-248h38L239 0h-34zm-38-99l-47-123c-12 45-31 82-46 123h93" id="aO"/><path d="M185-189c-5-48-123-54-124 2 14 75 158 14 163 119 3 78-121 87-175 55-17-10-28-26-33-46l33-7c5 56 141 63 141-1 0-78-155-14-162-118-5-82 145-84 179-34 5 7 8 16 11 25" id="aP"/><g id="d"><use transform="matrix(0.06234567901234567,0,0,0.06234567901234567,0,0)" xlink:href="#aN"/><use transform="matrix(0.06234567901234567,0,0,0.06234567901234567,14.96296296296296,0)" xlink:href="#aO"/><use transform="matrix(0.06234567901234567,0,0,0.06234567901234567,29.92592592592592,0)" xlink:href="#aP"/></g><path d="M30 0v-248h187v28H63v79h144v27H63v87h162V0H30" id="aQ"/><path d="M212-179c-10-28-35-45-73-45-59 0-87 40-87 99 0 60 29 101 89 101 43 0 62-24 78-52l27 14C228-24 195 4 139 4 59 4 22-46 18-125c-6-104 99-153 187-111 19 9 31 26 39 46" id="aR"/><g id="e"><use transform="matrix(0.06234567901234567,0,0,0.06234567901234567,0,0)" xlink:href="#aQ"/><use transform="matrix(0.06234567901234567,0,0,0.06234567901234567,14.96296296296296,0)" xlink:href="#aR"/><use transform="matrix(0.06234567901234567,0,0,0.06234567901234567,31.11049382716049,0)" xlink:href="#aR"/></g><path d="M234-2c-28 10-62 0-77-18C117 19 8 12 13-65c3-43 29-61 60-76-25-40-17-114 47-108 35 3 59 15 59 50 0 44-40 53-71 69 14 26 32 50 51 72 14-21 24-43 30-72l26 8c-9 33-21 57-38 82 13 13 33 22 57 15v23zM97-151c25-10 52-18 56-48-1-18-13-29-33-29-42 0-39 50-23 77zM42-66c-3 51 71 58 98 28-20-24-41-51-56-80-23 10-40 24-42 52" id="aS"/><use transform="matrix(0.06234567901234567,0,0,0.06234567901234567,0,0)" xlink:href="#aS" id="f"/><path d="M160-131c35 5 61 23 61 61C221 17 115-2 30 0v-248c76 3 177-17 177 60 0 33-19 50-47 57zm-97-11c50-1 110 9 110-42 0-47-63-36-110-37v79zm0 115c55-2 124 14 124-45 0-56-70-42-124-44v89" id="aT"/><path d="M117-194c89-4 53 116 60 194h-32v-121c0-31-8-49-39-48C34-167 62-67 57 0H25l-1-190h30c1 10-1 24 2 32 11-22 29-35 61-36" id="aU"/><path d="M85-194c31 0 48 13 60 33l-1-100h32l1 261h-30c-2-10 0-23-3-31C134-8 116 4 85 4 32 4 16-35 15-94c0-66 23-100 70-100zm9 24c-40 0-46 34-46 75 0 40 6 74 45 74 42 0 51-32 51-76 0-42-9-74-50-73" id="aV"/><g id="g"><use transform="matrix(0.06234567901234567,0,0,0.06234567901234567,0,0)" xlink:href="#aT"/><use transform="matrix(0.06234567901234567,0,0,0.06234567901234567,14.96296296296296,0)" xlink:href="#aF"/><use transform="matrix(0.06234567901234567,0,0,0.06234567901234567,19.888271604938268,0)" xlink:href="#aU"/><use transform="matrix(0.06234567901234567,0,0,0.06234567901234567,32.3574074074074,0)" xlink:href="#aV"/><use transform="matrix(0.06234567901234567,0,0,0.06234567901234567,44.82654320987653,0)" xlink:href="#aF"/><use transform="matrix(0.06234567901234567,0,0,0.06234567901234567,49.75185185185184,0)" xlink:href="#aU"/><use transform="matrix(0.06234567901234567,0,0,0.06234567901234567,62.22098765432097,0)" xlink:href="#aE"/></g><path d="M100-194c62-1 85 37 85 99 1 63-27 99-86 99S16-35 15-95c0-66 28-99 85-99zM99-20c44 1 53-31 53-75 0-43-8-75-51-75s-53 32-53 75 10 74 51 75" id="aW"/><g id="h"><use transform="matrix(0.06234567901234567,0,0,0.06234567901234567,0,0)" xlink:href="#aC"/><use transform="matrix(0.06234567901234567,0,0,0.06234567901234567,18.641358024691353,0)" xlink:href="#aW"/><use transform="matrix(0.06234567901234567,0,0,0.06234567901234567,31.110493827160486,0)" xlink:href="#aV"/><use transform="matrix(0.06234567901234567,0,0,0.06234567901234567,43.57962962962962,0)" xlink:href="#aL"/></g><path d="M30-248c87 1 191-15 191 75 0 78-77 80-158 76V0H30v-248zm33 125c57 0 124 11 124-50 0-59-68-47-124-48v98" id="aX"/><path d="M179-190L93 31C79 59 56 82 12 73V49c39 6 53-20 64-50L1-190h34L92-34l54-156h33" id="aY"/><path d="M24 0v-261h32V0H24" id="aZ"/><g id="i"><use transform="matrix(0.06234567901234567,0,0,0.06234567901234567,0,0)" xlink:href="#aX"/><use transform="matrix(0.06234567901234567,0,0,0.06234567901234567,14.96296296296296,0)" xlink:href="#aD"/><use transform="matrix(0.06234567901234567,0,0,0.06234567901234567,27.432098765432094,0)" xlink:href="#aY"/><use transform="matrix(0.06234567901234567,0,0,0.06234567901234567,38.654320987654316,0)" xlink:href="#aZ"/><use transform="matrix(0.06234567901234567,0,0,0.06234567901234567,43.57962962962962,0)" xlink:href="#aW"/><use transform="matrix(0.06234567901234567,0,0,0.06234567901234567,56.048765432098755,0)" xlink:href="#aD"/><use transform="matrix(0.06234567901234567,0,0,0.06234567901234567,68.51790123456789,0)" xlink:href="#aV"/></g><path d="M59-47c-2 24 18 29 38 22v24C64 9 27 4 27-40v-127H5v-23h24l9-43h21v43h35v23H59v120" id="ba"/><g id="j"><use transform="matrix(0.06234567901234567,0,0,0.06234567901234567,0,0)" xlink:href="#aP"/><use transform="matrix(0.06234567901234567,0,0,0.06234567901234567,14.96296296296296,0)" xlink:href="#aF"/><use transform="matrix(0.06234567901234567,0,0,0.06234567901234567,19.888271604938268,0)" xlink:href="#aE"/><use transform="matrix(0.06234567901234567,0,0,0.06234567901234567,32.3574074074074,0)" xlink:href="#aU"/><use transform="matrix(0.06234567901234567,0,0,0.06234567901234567,44.82654320987653,0)" xlink:href="#aD"/><use transform="matrix(0.06234567901234567,0,0,0.06234567901234567,57.295679012345666,0)" xlink:href="#ba"/><use transform="matrix(0.06234567901234567,0,0,0.06234567901234567,63.53024691358023,0)" xlink:href="#aI"/><use transform="matrix(0.06234567901234567,0,0,0.06234567901234567,75.99938271604935,0)" xlink:href="#aM"/><use transform="matrix(0.06234567901234567,0,0,0.06234567901234567,83.41851851851848,0)" xlink:href="#aL"/></g><path d="M101-234c-31-9-42 10-38 44h38v23H63V0H32v-167H5v-23h27c-7-52 17-82 69-68v24" id="bb"/><g id="k"><use transform="matrix(0.06234567901234567,0,0,0.06234567901234567,0,0)" xlink:href="#aR"/><use transform="matrix(0.06234567901234567,0,0,0.06234567901234567,16.147530864197527,0)" xlink:href="#aW"/><use transform="matrix(0.06234567901234567,0,0,0.06234567901234567,28.61666666666666,0)" xlink:href="#aU"/><use transform="matrix(0.06234567901234567,0,0,0.06234567901234567,41.08580246913579,0)" xlink:href="#bb"/><use transform="matrix(0.06234567901234567,0,0,0.06234567901234567,47.320370370370355,0)" xlink:href="#aF"/><use transform="matrix(0.06234567901234567,0,0,0.06234567901234567,52.24567901234566,0)" xlink:href="#aE"/></g><g id="l"><use transform="matrix(0.06234567901234567,0,0,0.06234567901234567,0,0)" xlink:href="#aX"/><use transform="matrix(0.06234567901234567,0,0,0.06234567901234567,14.96296296296296,0)" xlink:href="#aW"/><use transform="matrix(0.06234567901234567,0,0,0.06234567901234567,27.432098765432094,0)" xlink:href="#aZ"/><use transform="matrix(0.06234567901234567,0,0,0.06234567901234567,32.3574074074074,0)" xlink:href="#aF"/><use transform="matrix(0.06234567901234567,0,0,0.06234567901234567,37.28271604938271,0)" xlink:href="#aG"/><use transform="matrix(0.06234567901234567,0,0,0.06234567901234567,48.50493827160493,0)" xlink:href="#aY"/></g><path d="M115-194c55 1 70 41 70 98S169 2 115 4C84 4 66-9 55-30l1 105H24l-1-265h31l2 30c10-21 28-34 59-34zm-8 174c40 0 45-34 45-75s-6-73-45-74c-42 0-51 32-51 76 0 43 10 73 51 73" id="bc"/><path d="M106-169C34-169 62-67 57 0H25v-261h32l-1 103c12-21 28-36 61-36 89 0 53 116 60 194h-32v-121c2-32-8-49-39-48" id="bd"/><g id="m"><use transform="matrix(0.06234567901234567,0,0,0.06234567901234567,0,0)" xlink:href="#aQ"/><use transform="matrix(0.06234567901234567,0,0,0.06234567901234567,14.96296296296296,0)" xlink:href="#bc"/><use transform="matrix(0.06234567901234567,0,0,0.06234567901234567,27.432098765432094,0)" xlink:href="#bd"/><use transform="matrix(0.06234567901234567,0,0,0.06234567901234567,39.90123456790123,0)" xlink:href="#aL"/><use transform="matrix(0.06234567901234567,0,0,0.06234567901234567,52.37037037037036,0)" xlink:href="#aJ"/><use transform="matrix(0.06234567901234567,0,0,0.06234567901234567,71.01172839506171,0)" xlink:href="#aL"/><use transform="matrix(0.06234567901234567,0,0,0.06234567901234567,83.48086419753085,0)" xlink:href="#aM"/><use transform="matrix(0.06234567901234567,0,0,0.06234567901234567,90.89999999999998,0)" xlink:href="#aD"/><use transform="matrix(0.06234567901234567,0,0,0.06234567901234567,103.36913580246912,0)" xlink:href="#aZ"/></g><g id="n"><use transform="matrix(0.06234567901234567,0,0,0.06234567901234567,0,0)" xlink:href="#aX"/><use transform="matrix(0.06234567901234567,0,0,0.06234567901234567,14.96296296296296,0)" xlink:href="#aI"/><use transform="matrix(0.06234567901234567,0,0,0.06234567901234567,27.432098765432094,0)" xlink:href="#aK"/><use transform="matrix(0.06234567901234567,0,0,0.06234567901234567,39.90123456790123,0)" xlink:href="#aZ"/><use transform="matrix(0.06234567901234567,0,0,0.06234567901234567,44.82654320987653,0)" xlink:href="#aF"/><use transform="matrix(0.06234567901234567,0,0,0.06234567901234567,49.75185185185184,0)" xlink:href="#aG"/></g><g id="o"><use transform="matrix(0.06234567901234567,0,0,0.06234567901234567,0,0)" xlink:href="#aN"/><use transform="matrix(0.06234567901234567,0,0,0.06234567901234567,14.96296296296296,0)" xlink:href="#aL"/><use transform="matrix(0.06234567901234567,0,0,0.06234567901234567,27.432098765432094,0)" xlink:href="#aY"/></g><path d="M24-248c93 1 206-16 204 79-1 75-69 88-152 82V0H24v-248zm52 121c47 0 100 7 100-41 0-47-54-39-100-39v80" id="be"/><path d="M123 10C108 53 80 86 19 72V37c35 8 53-11 59-39L3-190h52l48 148c12-52 28-100 44-148h51" id="bf"/><path d="M25 0v-261h50V0H25" id="bg"/><path d="M110-194c64 0 96 36 96 99 0 64-35 99-97 99-61 0-95-36-95-99 0-62 34-99 96-99zm-1 164c35 0 45-28 45-65 0-40-10-65-43-65-34 0-45 26-45 65 0 36 10 65 43 65" id="bh"/><g id="p"><use transform="matrix(0.07469135802469135,0,0,0.07469135802469135,0,0)" xlink:href="#be"/><use transform="matrix(0.07469135802469135,0,0,0.07469135802469135,17.925925925925924,0)" xlink:href="#az"/><use transform="matrix(0.07469135802469135,0,0,0.07469135802469135,32.86419753086419,0)" xlink:href="#bf"/><use transform="matrix(0.07469135802469135,0,0,0.07469135802469135,47.802469135802454,0)" xlink:href="#bg"/><use transform="matrix(0.07469135802469135,0,0,0.07469135802469135,55.27160493827159,0)" xlink:href="#bh"/><use transform="matrix(0.07469135802469135,0,0,0.07469135802469135,71.62901234567899,0)" xlink:href="#az"/><use transform="matrix(0.07469135802469135,0,0,0.07469135802469135,86.56728395061725,0)" xlink:href="#aA"/></g><path d="M30 0v-248h33v221h125V0H30" id="bi"/><g id="q"><use transform="matrix(0.06234567901234567,0,0,0.06234567901234567,0,0)" xlink:href="#bi"/><use transform="matrix(0.06234567901234567,0,0,0.06234567901234567,12.469135802469133,0)" xlink:href="#aL"/><use transform="matrix(0.06234567901234567,0,0,0.06234567901234567,24.938271604938265,0)" xlink:href="#aU"/><use transform="matrix(0.06234567901234567,0,0,0.06234567901234567,37.4074074074074,0)" xlink:href="#aE"/><use transform="matrix(0.06234567901234567,0,0,0.06234567901234567,49.87654320987653,0)" xlink:href="#ba"/><use transform="matrix(0.06234567901234567,0,0,0.06234567901234567,56.1111111111111,0)" xlink:href="#bd"/></g><path d="M33 0v-248h34V0H33" id="bj"/><path d="M137 0h-34L2-248h35l83 218 83-218h36" id="bk"/><g id="r"><use transform="matrix(0.06234567901234567,0,0,0.06234567901234567,0,0)" xlink:href="#bj"/><use transform="matrix(0.06234567901234567,0,0,0.06234567901234567,6.234567901234566,0)" xlink:href="#bk"/></g><path d="M118-107v75H92v-75H18v-26h74v-75h26v75h74v26h-74" id="bl"/><use transform="matrix(0.06234567901234567,0,0,0.06234567901234567,0,0)" xlink:href="#bl" id="s"/><path d="M141 0L90-78 38 0H4l68-98-65-92h35l48 74 47-74h35l-64 92 68 98h-35" id="bm"/><g id="t"><use transform="matrix(0.06234567901234567,0,0,0.06234567901234567,0,0)" xlink:href="#aR"/><use transform="matrix(0.06234567901234567,0,0,0.06234567901234567,16.147530864197527,0)" xlink:href="#aF"/><use transform="matrix(0.06234567901234567,0,0,0.06234567901234567,21.072839506172834,0)" xlink:href="#bc"/><use transform="matrix(0.06234567901234567,0,0,0.06234567901234567,33.541975308641966,0)" xlink:href="#bd"/><use transform="matrix(0.06234567901234567,0,0,0.06234567901234567,46.0111111111111,0)" xlink:href="#aL"/><use transform="matrix(0.06234567901234567,0,0,0.06234567901234567,58.48024691358023,0)" xlink:href="#aM"/><use transform="matrix(0.06234567901234567,0,0,0.06234567901234567,65.89938271604936,0)" xlink:href="#ba"/><use transform="matrix(0.06234567901234567,0,0,0.06234567901234567,72.13395061728393,0)" xlink:href="#aL"/><use transform="matrix(0.06234567901234567,0,0,0.06234567901234567,84.60308641975305,0)" xlink:href="#bm"/><use transform="matrix(0.06234567901234567,0,0,0.06234567901234567,95.82530864197527,0)" xlink:href="#ba"/></g><g id="u"><use transform="matrix(0.06234567901234567,0,0,0.06234567901234567,0,0)" xlink:href="#aC"/><use transform="matrix(0.06234567901234567,0,0,0.06234567901234567,18.641358024691353,0)" xlink:href="#aO"/><use transform="matrix(0.06234567901234567,0,0,0.06234567901234567,33.60432098765431,0)" xlink:href="#aR"/></g><path d="M169-182c-1-43-94-46-97-3 18 66 151 10 154 114 3 95-165 93-204 36-6-8-10-19-12-30l50-8c3 46 112 56 116 5-17-69-150-10-154-114-4-87 153-88 188-35 5 8 8 18 10 28" id="bn"/><path d="M25-224v-37h50v37H25zM25 0v-190h50V0H25" id="bo"/><path d="M195-6C206 82 75 100 31 46c-4-6-6-13-8-21l49-6c3 16 16 24 34 25 40 0 42-37 40-79-11 22-30 35-61 35-53 0-70-43-70-97 0-56 18-96 73-97 30 0 46 14 59 34l2-30h47zm-90-29c32 0 41-27 41-63 0-35-9-62-40-62-32 0-39 29-40 63 0 36 9 62 39 62" id="bp"/><path d="M135-194c87-1 58 113 63 194h-50c-7-57 23-157-34-157-59 0-34 97-39 157H25l-1-190h47c2 12-1 28 3 38 12-26 28-41 61-42" id="bq"/><path d="M115-3C79 11 28 4 28-45v-112H4v-33h27l15-45h31v45h36v33H77v99c-1 23 16 31 38 25v30" id="br"/><path d="M85 4C-2 5 27-109 22-190h50c7 57-23 150 33 157 60-5 35-97 40-157h50l1 190h-47c-2-12 1-28-3-38-12 25-28 42-61 42" id="bs"/><g id="v"><use transform="matrix(0.07469135802469135,0,0,0.07469135802469135,0,0)" xlink:href="#bn"/><use transform="matrix(0.07469135802469135,0,0,0.07469135802469135,17.925925925925924,0)" xlink:href="#bo"/><use transform="matrix(0.07469135802469135,0,0,0.07469135802469135,25.395061728395056,0)" xlink:href="#bp"/><use transform="matrix(0.07469135802469135,0,0,0.07469135802469135,41.75246913580246,0)" xlink:href="#bq"/><use transform="matrix(0.07469135802469135,0,0,0.07469135802469135,58.109876543209865,0)" xlink:href="#az"/><use transform="matrix(0.07469135802469135,0,0,0.07469135802469135,73.04814814814813,0)" xlink:href="#br"/><use transform="matrix(0.07469135802469135,0,0,0.07469135802469135,81.93641975308638,0)" xlink:href="#bs"/><use transform="matrix(0.07469135802469135,0,0,0.07469135802469135,98.2938271604938,0)" xlink:href="#aB"/><use transform="matrix(0.07469135802469135,0,0,0.07469135802469135,108.75061728395058,0)" xlink:href="#ay"/></g><g id="w"><use transform="matrix(0.06234567901234567,0,0,0.06234567901234567,0,0)" xlink:href="#aP"/><use transform="matrix(0.06234567901234567,0,0,0.06234567901234567,14.96296296296296,0)" xlink:href="#aF"/><use transform="matrix(0.06234567901234567,0,0,0.06234567901234567,19.888271604938268,0)" xlink:href="#aE"/><use transform="matrix(0.06234567901234567,0,0,0.06234567901234567,32.3574074074074,0)" xlink:href="#aU"/><use transform="matrix(0.06234567901234567,0,0,0.06234567901234567,44.82654320987653,0)" xlink:href="#aL"/><use transform="matrix(0.06234567901234567,0,0,0.06234567901234567,57.295679012345666,0)" xlink:href="#aM"/></g><g id="x"><use transform="matrix(0.06234567901234567,0,0,0.06234567901234567,0,0)" xlink:href="#aX"/><use transform="matrix(0.06234567901234567,0,0,0.06234567901234567,14.96296296296296,0)" xlink:href="#aI"/><use transform="matrix(0.06234567901234567,0,0,0.06234567901234567,27.432098765432094,0)" xlink:href="#aK"/><use transform="matrix(0.06234567901234567,0,0,0.06234567901234567,39.90123456790123,0)" xlink:href="#aZ"/><use transform="matrix(0.06234567901234567,0,0,0.06234567901234567,44.82654320987653,0)" xlink:href="#aF"/><use transform="matrix(0.06234567901234567,0,0,0.06234567901234567,49.75185185185184,0)" xlink:href="#aG"/></g><g id="y"><use transform="matrix(0.06234567901234567,0,0,0.06234567901234567,0,0)" xlink:href="#aP"/><use transform="matrix(0.06234567901234567,0,0,0.06234567901234567,14.96296296296296,0)" xlink:href="#aF"/><use transform="matrix(0.06234567901234567,0,0,0.06234567901234567,19.888271604938268,0)" xlink:href="#aE"/><use transform="matrix(0.06234567901234567,0,0,0.06234567901234567,32.3574074074074,0)" xlink:href="#aU"/><use transform="matrix(0.06234567901234567,0,0,0.06234567901234567,44.82654320987653,0)" xlink:href="#aD"/><use transform="matrix(0.06234567901234567,0,0,0.06234567901234567,57.295679012345666,0)" xlink:href="#ba"/><use transform="matrix(0.06234567901234567,0,0,0.06234567901234567,63.53024691358023,0)" xlink:href="#aI"/><use transform="matrix(0.06234567901234567,0,0,0.06234567901234567,75.99938271604935,0)" xlink:href="#aM"/><use transform="matrix(0.06234567901234567,0,0,0.06234567901234567,83.41851851851848,0)" xlink:href="#aL"/></g><g id="z"><use transform="matrix(0.06234567901234567,0,0,0.06234567901234567,0,0)" xlink:href="#aT"/><use transform="matrix(0.06234567901234567,0,0,0.06234567901234567,14.96296296296296,0)" xlink:href="#aW"/><use transform="matrix(0.06234567901234567,0,0,0.06234567901234567,27.432098765432094,0)" xlink:href="#aV"/><use transform="matrix(0.06234567901234567,0,0,0.06234567901234567,39.90123456790123,0)" xlink:href="#aY"/></g><path fill="#fff" d="M24-248c93 1 206-16 204 79-1 75-69 88-152 82V0H24v-248zm52 121c47 0 100 7 100-41 0-47-54-39-100-39v80" id="bt"/><path fill="#fff" d="M110-194c64 0 96 36 96 99 0 64-35 99-97 99-61 0-95-36-95-99 0-62 34-99 96-99zm-1 164c35 0 45-28 45-65 0-40-10-65-43-65-34 0-45 26-45 65 0 36 10 65 43 65" id="bu"/><path fill="#fff" d="M25 0v-261h50V0H25" id="bv"/><path fill="#fff" d="M25-224v-37h50v37H25zM25 0v-190h50V0H25" id="bw"/><path fill="#fff" d="M190-63c-7 42-38 67-86 67-59 0-84-38-90-98-12-110 154-137 174-36l-49 2c-2-19-15-32-35-32-30 0-35 28-38 64-6 74 65 87 74 30" id="bx"/><path fill="#fff" d="M123 10C108 53 80 86 19 72V37c35 8 53-11 59-39L3-190h52l48 148c12-52 28-100 44-148h51" id="by"/><g id="A"><use transform="matrix(0.04999999999999998,0,0,0.04999999999999998,0,0)" xlink:href="#bt"/><use transform="matrix(0.04999999999999998,0,0,0.04999999999999998,11.999999999999996,0)" xlink:href="#bu"/><use transform="matrix(0.04999999999999998,0,0,0.04999999999999998,22.949999999999992,0)" xlink:href="#bv"/><use transform="matrix(0.04999999999999998,0,0,0.04999999999999998,27.94999999999999,0)" xlink:href="#bw"/><use transform="matrix(0.04999999999999998,0,0,0.04999999999999998,32.94999999999999,0)" xlink:href="#bx"/><use transform="matrix(0.04999999999999998,0,0,0.04999999999999998,42.94999999999999,0)" xlink:href="#by"/></g><g id="B"><use transform="matrix(0.04999999999999998,0,0,0.04999999999999998,0,0)" xlink:href="#aX"/><use transform="matrix(0.04999999999999998,0,0,0.04999999999999998,11.999999999999996,0)" xlink:href="#aW"/><use transform="matrix(0.04999999999999998,0,0,0.04999999999999998,21.999999999999993,0)" xlink:href="#aZ"/><use transform="matrix(0.04999999999999998,0,0,0.04999999999999998,25.949999999999992,0)" xlink:href="#aF"/><use transform="matrix(0.04999999999999998,0,0,0.04999999999999998,29.899999999999988,0)" xlink:href="#aG"/><use transform="matrix(0.04999999999999998,0,0,0.04999999999999998,38.89999999999999,0)" xlink:href="#aY"/></g><g id="C"><use transform="matrix(0.04999999999999998,0,0,0.04999999999999998,0,0)" xlink:href="#aC"/><use transform="matrix(0.04999999999999998,0,0,0.04999999999999998,14.949999999999994,0)" xlink:href="#aW"/><use transform="matrix(0.04999999999999998,0,0,0.04999999999999998,24.94999999999999,0)" xlink:href="#aV"/><use transform="matrix(0.04999999999999998,0,0,0.04999999999999998,34.94999999999999,0)" xlink:href="#aL"/></g><g id="D"><use transform="matrix(0.04999999999999998,0,0,0.04999999999999998,0,0)" xlink:href="#aT"/><use transform="matrix(0.04999999999999998,0,0,0.04999999999999998,11.999999999999996,0)" xlink:href="#aW"/><use transform="matrix(0.04999999999999998,0,0,0.04999999999999998,21.999999999999993,0)" xlink:href="#aV"/><use transform="matrix(0.04999999999999998,0,0,0.04999999999999998,31.99999999999999,0)" xlink:href="#aY"/></g><g id="E"><use transform="matrix(0.04999999999999998,0,0,0.04999999999999998,0,0)" xlink:href="#aT"/><use transform="matrix(0.04999999999999998,0,0,0.04999999999999998,11.999999999999996,0)" xlink:href="#aF"/><use transform="matrix(0.04999999999999998,0,0,0.04999999999999998,15.949999999999998,0)" xlink:href="#aU"/><use transform="matrix(0.04999999999999998,0,0,0.04999999999999998,25.949999999999992,0)" xlink:href="#aV"/><use transform="matrix(0.04999999999999998,0,0,0.04999999999999998,35.94999999999999,0)" xlink:href="#aF"/><use transform="matrix(0.04999999999999998,0,0,0.04999999999999998,39.899999999999984,0)" xlink:href="#aU"/><use transform="matrix(0.04999999999999998,0,0,0.04999999999999998,49.89999999999998,0)" xlink:href="#aE"/></g><path fill="#fff" d="M240-174c0 40-23 61-54 70L253 0h-59l-57-94H76V0H24v-248c93 4 217-23 216 74zM76-134c48-2 112 12 112-38 0-48-66-32-112-35v73" id="bz"/><path fill="#fff" d="M185-48c-13 30-37 53-82 52C43 2 14-33 14-96s30-98 90-98c62 0 83 45 84 108H66c0 31 8 55 39 56 18 0 30-7 34-22zm-45-69c5-46-57-63-70-21-2 6-4 13-4 21h74" id="bA"/><path fill="#fff" d="M137-138c1-29-70-34-71-4 15 46 118 7 119 86 1 83-164 76-172 9l43-7c4 19 20 25 44 25 33 8 57-30 24-41C81-84 22-81 20-136c-2-80 154-74 161-7" id="bB"/><path fill="#fff" d="M85 4C-2 5 27-109 22-190h50c7 57-23 150 33 157 60-5 35-97 40-157h50l1 190h-47c-2-12 1-28-3-38-12 25-28 42-61 42" id="bC"/><path fill="#fff" d="M135-150c-39-12-60 13-60 57V0H25l-1-190h47c2 13-1 29 3 40 6-28 27-53 61-41v41" id="bD"/><g id="F"><use transform="matrix(0.04999999999999998,0,0,0.04999999999999998,0,0)" xlink:href="#bz"/><use transform="matrix(0.04999999999999998,0,0,0.04999999999999998,12.949999999999996,0)" xlink:href="#bA"/><use transform="matrix(0.04999999999999998,0,0,0.04999999999999998,22.949999999999992,0)" xlink:href="#bB"/><use transform="matrix(0.04999999999999998,0,0,0.04999999999999998,32.94999999999999,0)" xlink:href="#bu"/><use transform="matrix(0.04999999999999998,0,0,0.04999999999999998,43.899999999999984,0)" xlink:href="#bC"/><use transform="matrix(0.04999999999999998,0,0,0.04999999999999998,54.84999999999998,0)" xlink:href="#bD"/><use transform="matrix(0.04999999999999998,0,0,0.04999999999999998,61.84999999999998,0)" xlink:href="#bx"/><use transform="matrix(0.04999999999999998,0,0,0.04999999999999998,71.84999999999998,0)" xlink:href="#bA"/></g><path fill="#fff" d="M24 0v-248h52v208h133V0H24" id="bE"/><path fill="#fff" d="M133-34C117-15 103 5 69 4 32 3 11-16 11-54c-1-60 55-63 116-61 1-26-3-47-28-47-18 1-26 9-28 27l-52-2c7-38 36-58 82-57s74 22 75 68l1 82c-1 14 12 18 25 15v27c-30 8-71 5-69-32zm-48 3c29 0 43-24 42-57-32 0-66-3-65 30 0 17 8 27 23 27" id="bF"/><path fill="#fff" d="M115-3C79 11 28 4 28-45v-112H4v-33h27l15-45h31v45h36v33H77v99c-1 23 16 31 38 25v30" id="bG"/><g id="G"><use transform="matrix(0.04999999999999998,0,0,0.04999999999999998,0,0)" xlink:href="#bE"/><use transform="matrix(0.04999999999999998,0,0,0.04999999999999998,10.949999999999996,0)" xlink:href="#bu"/><use transform="matrix(0.04999999999999998,0,0,0.04999999999999998,21.89999999999999,0)" xlink:href="#bx"/><use transform="matrix(0.04999999999999998,0,0,0.04999999999999998,31.899999999999988,0)" xlink:href="#bF"/><use transform="matrix(0.04999999999999998,0,0,0.04999999999999998,41.899999999999984,0)" xlink:href="#bG"/><use transform="matrix(0.04999999999999998,0,0,0.04999999999999998,47.84999999999998,0)" xlink:href="#bu"/><use transform="matrix(0.04999999999999998,0,0,0.04999999999999998,58.799999999999976,0)" xlink:href="#bD"/></g><g id="H"><use transform="matrix(0.04999999999999998,0,0,0.04999999999999998,0,0)" xlink:href="#aC"/><use transform="matrix(0.04999999999999998,0,0,0.04999999999999998,14.949999999999994,0)" xlink:href="#aW"/><use transform="matrix(0.04999999999999998,0,0,0.04999999999999998,24.94999999999999,0)" xlink:href="#aV"/><use transform="matrix(0.04999999999999998,0,0,0.04999999999999998,34.94999999999999,0)" xlink:href="#aL"/></g><g id="I"><use transform="matrix(0.04999999999999998,0,0,0.04999999999999998,0,0)" xlink:href="#bi"/><use transform="matrix(0.04999999999999998,0,0,0.04999999999999998,9.999999999999996,0)" xlink:href="#aL"/><use transform="matrix(0.04999999999999998,0,0,0.04999999999999998,19.999999999999993,0)" xlink:href="#aU"/><use transform="matrix(0.04999999999999998,0,0,0.04999999999999998,29.99999999999999,0)" xlink:href="#aE"/><use transform="matrix(0.04999999999999998,0,0,0.04999999999999998,39.999999999999986,0)" xlink:href="#ba"/><use transform="matrix(0.04999999999999998,0,0,0.04999999999999998,44.999999999999986,0)" xlink:href="#bd"/></g><g id="J"><use transform="matrix(0.04999999999999998,0,0,0.04999999999999998,0,0)" xlink:href="#aT"/><use transform="matrix(0.04999999999999998,0,0,0.04999999999999998,11.999999999999996,0)" xlink:href="#aW"/><use transform="matrix(0.04999999999999998,0,0,0.04999999999999998,21.999999999999993,0)" xlink:href="#aV"/><use transform="matrix(0.04999999999999998,0,0,0.04999999999999998,31.99999999999999,0)" xlink:href="#aY"/></g><path fill="#fff" d="M121-226c-27-7-43 5-38 36h38v33H83V0H34v-157H6v-33h28c-9-59 32-81 87-68v32" id="bH"/><path fill="#fff" d="M135-194c87-1 58 113 63 194h-50c-7-57 23-157-34-157-59 0-34 97-39 157H25l-1-190h47c2 12-1 28 3 38 12-26 28-41 61-42" id="bI"/><g id="K"><use transform="matrix(0.04999999999999998,0,0,0.04999999999999998,0,0)" xlink:href="#bz"/><use transform="matrix(0.04999999999999998,0,0,0.04999999999999998,12.949999999999996,0)" xlink:href="#bA"/><use transform="matrix(0.04999999999999998,0,0,0.04999999999999998,22.949999999999992,0)" xlink:href="#bH"/><use transform="matrix(0.04999999999999998,0,0,0.04999999999999998,28.899999999999988,0)" xlink:href="#bA"/><use transform="matrix(0.04999999999999998,0,0,0.04999999999999998,38.89999999999999,0)" xlink:href="#bD"/><use transform="matrix(0.04999999999999998,0,0,0.04999999999999998,45.89999999999999,0)" xlink:href="#bA"/><use transform="matrix(0.04999999999999998,0,0,0.04999999999999998,55.89999999999999,0)" xlink:href="#bI"/><use transform="matrix(0.04999999999999998,0,0,0.04999999999999998,66.85,0)" xlink:href="#bx"/><use transform="matrix(0.04999999999999998,0,0,0.04999999999999998,76.85,0)" xlink:href="#bA"/></g><g id="L"><use transform="matrix(0.04999999999999998,0,0,0.04999999999999998,0,0)" xlink:href="#bt"/><use transform="matrix(0.04999999999999998,0,0,0.04999999999999998,11.999999999999996,0)" xlink:href="#bu"/><use transform="matrix(0.04999999999999998,0,0,0.04999999999999998,22.949999999999992,0)" xlink:href="#bv"/><use transform="matrix(0.04999999999999998,0,0,0.04999999999999998,27.94999999999999,0)" xlink:href="#bw"/><use transform="matrix(0.04999999999999998,0,0,0.04999999999999998,32.94999999999999,0)" xlink:href="#bx"/><use transform="matrix(0.04999999999999998,0,0,0.04999999999999998,42.94999999999999,0)" xlink:href="#by"/></g><path d="M612-1438c149 0 259 67 344 192 155 228 156 840 4 1076C877-41 766 27 612 27c-149 0-259-67-344-192-156-228-157-840-4-1075 83-128 195-198 348-198zm0 1321c99 0 167-50 220-141 90-155 90-740 0-894-53-90-121-140-220-140-97 0-165 50-218 143-91 159-90 733 0 891 52 92 120 141 218 141zM460-705c0-83 66-150 148-150s150 69 150 150c0 82-69 158-150 158-80 0-148-76-148-158" id="bJ"/><path d="M1055 0H879L600-408 311 0H145l371-522-371-520h179l280 405 285-405h166L686-528" id="bK"/><g id="M"><use transform="matrix(0.008789062499999997,0,0,0.008789062499999997,0,0)" xlink:href="#bJ"/><use transform="matrix(0.008789062499999997,0,0,0.008789062499999997,10.801757812499996,0)" xlink:href="#bK"/><use transform="matrix(0.008789062499999997,0,0,0.008789062499999997,21.603515624999993,0)" xlink:href="#bJ"/><use transform="matrix(0.008789062499999997,0,0,0.008789062499999997,32.405273437499986,0)" xlink:href="#bJ"/></g><path d="M233-177c-1 41-23 64-60 70L243 0h-38l-65-103H63V0H30v-248c88 3 205-21 203 71zM63-129c60-2 137 13 137-47 0-61-80-42-137-45v92" id="bL"/><path d="M135-143c-3-34-86-38-87 0 15 53 115 12 119 90S17 21 10-45l28-5c4 36 97 45 98 0-10-56-113-15-118-90-4-57 82-63 122-42 12 7 21 19 24 35" id="bM"/><g id="N"><use transform="matrix(0.04999999999999998,0,0,0.04999999999999998,0,0)" xlink:href="#bL"/><use transform="matrix(0.04999999999999998,0,0,0.04999999999999998,12.949999999999996,0)" xlink:href="#aL"/><use transform="matrix(0.04999999999999998,0,0,0.04999999999999998,22.949999999999992,0)" xlink:href="#bM"/><use transform="matrix(0.04999999999999998,0,0,0.04999999999999998,31.94999999999999,0)" xlink:href="#aW"/><use transform="matrix(0.04999999999999998,0,0,0.04999999999999998,41.94999999999999,0)" xlink:href="#aI"/><use transform="matrix(0.04999999999999998,0,0,0.04999999999999998,51.949999999999996,0)" xlink:href="#aM"/><use transform="matrix(0.04999999999999998,0,0,0.04999999999999998,57.89999999999998,0)" xlink:href="#aG"/><use transform="matrix(0.04999999999999998,0,0,0.04999999999999998,66.89999999999998,0)" xlink:href="#aL"/></g><g id="O"><use transform="matrix(0.04999999999999998,0,0,0.04999999999999998,0,0)" xlink:href="#bi"/><use transform="matrix(0.04999999999999998,0,0,0.04999999999999998,9.999999999999996,0)" xlink:href="#aW"/><use transform="matrix(0.04999999999999998,0,0,0.04999999999999998,19.999999999999993,0)" xlink:href="#aG"/><use transform="matrix(0.04999999999999998,0,0,0.04999999999999998,28.99999999999999,0)" xlink:href="#aD"/><use transform="matrix(0.04999999999999998,0,0,0.04999999999999998,38.999999999999986,0)" xlink:href="#ba"/><use transform="matrix(0.04999999999999998,0,0,0.04999999999999998,43.999999999999986,0)" xlink:href="#aW"/><use transform="matrix(0.04999999999999998,0,0,0.04999999999999998,53.99999999999998,0)" xlink:href="#aM"/></g><path fill="#fff" d="M24 0v-248h195v40H76v63h132v40H76v65h150V0H24" id="bN"/><path fill="#fff" d="M220-157c-53 9-28 100-34 157h-49v-107c1-27-5-49-29-50C55-147 81-57 75 0H25l-1-190h47c2 12-1 28 3 38 10-53 101-56 108 0 13-22 24-43 59-42 82 1 51 116 57 194h-49v-107c-1-25-5-48-29-50" id="bO"/><path fill="#fff" d="M135-194c52 0 70 43 70 98 0 56-19 99-73 100-30 1-46-15-58-35L72 0H24l1-261h50v104c11-23 29-37 60-37zM114-30c31 0 40-27 40-66 0-37-7-63-39-63s-41 28-41 65c0 36 8 64 40 64" id="bP"/><path fill="#fff" d="M88-194c31-1 46 15 58 34l-1-101h50l1 261h-48c-2-10 0-23-3-31C134-8 116 4 84 4 32 4 16-41 15-95c0-56 19-97 73-99zm17 164c33 0 40-30 41-66 1-37-9-64-41-64s-38 30-39 65c0 43 13 65 39 65" id="bQ"/><g id="P"><use transform="matrix(0.04999999999999998,0,0,0.04999999999999998,0,0)" xlink:href="#bN"/><use transform="matrix(0.04999999999999998,0,0,0.04999999999999998,11.999999999999996,0)" xlink:href="#bO"/><use transform="matrix(0.04999999999999998,0,0,0.04999999999999998,27.999999999999996,0)" xlink:href="#bP"/><use transform="matrix(0.04999999999999998,0,0,0.04999999999999998,38.94999999999999,0)" xlink:href="#bA"/><use transform="matrix(0.04999999999999998,0,0,0.04999999999999998,48.94999999999999,0)" xlink:href="#bQ"/><use transform="matrix(0.04999999999999998,0,0,0.04999999999999998,59.89999999999999,0)" xlink:href="#bQ"/><use transform="matrix(0.04999999999999998,0,0,0.04999999999999998,70.84999999999998,0)" xlink:href="#bA"/><use transform="matrix(0.04999999999999998,0,0,0.04999999999999998,80.84999999999998,0)" xlink:href="#bQ"/></g><path d="M1018 0H276v-143h299v-1096l-282 141v-164l305-157h141v1276h279V0" id="bR"/><path d="M901-487H307v-152h594v152" id="bS"/><path d="M956-1083c0 148-127 296-254 319v6c151 38 281 170 285 346 6 246-239 439-487 439-112 0-212-25-301-74l32-135c93 43 184 65 275 65 164 0 313-120 309-284-5-191-180-292-397-277v-135c192 7 366-89 366-268-1-144-117-215-270-213-73 0-154 20-244 59l-22-141c91-41 182-62 274-62 230 0 434 137 434 355" id="bT"/><g id="Q"><use transform="matrix(0.008789062499999997,0,0,0.008789062499999997,0,0)" xlink:href="#bJ"/><use transform="matrix(0.008789062499999997,0,0,0.008789062499999997,10.801757812499996,0)" xlink:href="#bK"/><use transform="matrix(0.008789062499999997,0,0,0.008789062499999997,21.603515624999993,0)" xlink:href="#bJ"/><use transform="matrix(0.008789062499999997,0,0,0.008789062499999997,32.405273437499986,0)" xlink:href="#bR"/><use transform="matrix(0.008789062499999997,0,0,0.008789062499999997,43.207031249999986,0)" xlink:href="#bS"/><use transform="matrix(0.008789062499999997,0,0,0.008789062499999997,54.008789062499986,0)" xlink:href="#bJ"/><use transform="matrix(0.008789062499999997,0,0,0.008789062499999997,64.81054687499999,0)" xlink:href="#bK"/><use transform="matrix(0.008789062499999997,0,0,0.008789062499999997,75.61230468749999,0)" xlink:href="#bJ"/><use transform="matrix(0.008789062499999997,0,0,0.008789062499999997,86.41406249999999,0)" xlink:href="#bT"/></g><g id="R"><use transform="matrix(0.04999999999999998,0,0,0.04999999999999998,0,0)" xlink:href="#bi"/><use transform="matrix(0.04999999999999998,0,0,0.04999999999999998,9.999999999999996,0)" xlink:href="#aL"/><use transform="matrix(0.04999999999999998,0,0,0.04999999999999998,19.999999999999993,0)" xlink:href="#aU"/><use transform="matrix(0.04999999999999998,0,0,0.04999999999999998,29.99999999999999,0)" xlink:href="#aE"/><use transform="matrix(0.04999999999999998,0,0,0.04999999999999998,39.999999999999986,0)" xlink:href="#ba"/><use transform="matrix(0.04999999999999998,0,0,0.04999999999999998,44.999999999999986,0)" xlink:href="#bd"/></g><g id="S"><use transform="matrix(0.04999999999999998,0,0,0.04999999999999998,0,0)" xlink:href="#aX"/><use transform="matrix(0.04999999999999998,0,0,0.04999999999999998,11.999999999999996,0)" xlink:href="#aW"/><use transform="matrix(0.04999999999999998,0,0,0.04999999999999998,21.999999999999993,0)" xlink:href="#aZ"/><use transform="matrix(0.04999999999999998,0,0,0.04999999999999998,25.949999999999992,0)" xlink:href="#aF"/><use transform="matrix(0.04999999999999998,0,0,0.04999999999999998,29.899999999999988,0)" xlink:href="#aG"/><use transform="matrix(0.04999999999999998,0,0,0.04999999999999998,38.89999999999999,0)" xlink:href="#aY"/></g><path d="M0 4l72-265h28L28 4H0" id="bU"/><g id="T"><use transform="matrix(0.04999999999999998,0,0,0.04999999999999998,0,0)" xlink:href="#aX"/><use transform="matrix(0.04999999999999998,0,0,0.04999999999999998,11.999999999999996,0)" xlink:href="#aZ"/><use transform="matrix(0.04999999999999998,0,0,0.04999999999999998,15.949999999999998,0)" xlink:href="#aD"/><use transform="matrix(0.04999999999999998,0,0,0.04999999999999998,25.949999999999992,0)" xlink:href="#aF"/><use transform="matrix(0.04999999999999998,0,0,0.04999999999999998,29.899999999999988,0)" xlink:href="#aU"/><use transform="matrix(0.04999999999999998,0,0,0.04999999999999998,39.89999999999999,0)" xlink:href="#ba"/><use transform="matrix(0.04999999999999998,0,0,0.04999999999999998,44.89999999999999,0)" xlink:href="#aL"/><use transform="matrix(0.04999999999999998,0,0,0.04999999999999998,54.89999999999999,0)" xlink:href="#bm"/><use transform="matrix(0.04999999999999998,0,0,0.04999999999999998,63.89999999999999,0)" xlink:href="#ba"/><use transform="matrix(0.04999999999999998,0,0,0.04999999999999998,68.89999999999999,0)" xlink:href="#bU"/><use transform="matrix(0.04999999999999998,0,0,0.04999999999999998,73.89999999999999,0)" xlink:href="#aR"/><use transform="matrix(0.04999999999999998,0,0,0.04999999999999998,86.85,0)" xlink:href="#aF"/><use transform="matrix(0.04999999999999998,0,0,0.04999999999999998,90.8,0)" xlink:href="#bc"/><use transform="matrix(0.04999999999999998,0,0,0.04999999999999998,100.8,0)" xlink:href="#bd"/><use transform="matrix(0.04999999999999998,0,0,0.04999999999999998,110.80000000000001,0)" xlink:href="#aL"/><use transform="matrix(0.04999999999999998,0,0,0.04999999999999998,120.8,0)" xlink:href="#aM"/><use transform="matrix(0.04999999999999998,0,0,0.04999999999999998,126.75,0)" xlink:href="#ba"/><use transform="matrix(0.04999999999999998,0,0,0.04999999999999998,131.75,0)" xlink:href="#aL"/><use transform="matrix(0.04999999999999998,0,0,0.04999999999999998,141.75,0)" xlink:href="#bm"/><use transform="matrix(0.04999999999999998,0,0,0.04999999999999998,150.75,0)" xlink:href="#ba"/></g><path d="M795-1139c261-1 398 148 397 410V0H887v-653c-1-148-42-242-180-242-202 0-242 139-242 369V0H160v-1118h233l41 143h17c62-102 185-163 344-164" id="bV"/><path d="M618-1141c286 0 465 117 465 396V0H870l-59-152h-8C704-33 632 18 432 20 216 22 86-113 86-334c0-119 44-202 124-262 109-82 356-99 570-100 11-142-39-219-174-219-89 0-194 27-315 81l-101-206c129-67 271-101 428-101zm-71 938c137 0 235-88 233-223v-92c-190 3-382 4-381 186 0 86 49 129 148 129" id="bW"/><path d="M633-893c-183 0-230 133-230 332s48 336 232 336c183 0 229-137 229-336s-47-332-231-332zm4-246c347 5 535 225 539 578S978 25 631 20C283 15 96-208 92-561c-4-355 196-583 545-578" id="bX"/><path d="M748 0H438v-1204H41v-258h1104v258H748V0" id="bY"/><path d="M643-1462c464-5 754 260 754 717 0 491-297 749-799 745H184v-1462h459zm432 725c0-314-139-471-416-471H494v952h133c299 0 448-160 448-481" id="bZ"/><path d="M489 0H184v-1462h838v254H489v377h496v253H489V0" id="ca"/><g id="U"><use transform="matrix(0.013129340277777775,0,0,0.013129340277777775,0,0)" xlink:href="#bV"/><use transform="matrix(0.013129340277777775,0,0,0.013129340277777775,17.672092013888886,0)" xlink:href="#bW"/><use transform="matrix(0.013129340277777775,0,0,0.013129340277777775,33.91308593749999,0)" xlink:href="#bV"/><use transform="matrix(0.013129340277777775,0,0,0.013129340277777775,51.58517795138888,0)" xlink:href="#bX"/><use transform="matrix(0.013129340277777775,0,0,0.013129340277777775,68.2331814236111,0)" xlink:href="#bY"/><use transform="matrix(0.013129340277777775,0,0,0.013129340277777775,83.80457899305554,0)" xlink:href="#bZ"/><use transform="matrix(0.013129340277777775,0,0,0.013129340277777775,103.70865885416666,0)" xlink:href="#ca"/></g><path d="M846 0H537c2-380-6-768 8-1137-108 112-167 145-275 236l-149-186 471-375h254V0" id="cb"/><path d="M293 27c-110 0-177-61-176-170 0-113 63-170 176-170 109-1 174 61 174 170 0 105-67 170-174 170" id="cc"/><path d="M1096-731c0 255-42 444-126 567S758 20 584 20c-169 0-296-63-382-190S74-484 74-731c0-258 42-449 125-571s212-183 385-183c169 0 296 64 382 192s130 315 130 562zm-668-387c-58 126-58 646 0 772 35 76 83 117 156 117 72 0 120-41 156-118 60-128 60-645 0-771-36-76-85-117-156-117-73 0-120 41-156 117" id="cd"/><g id="V"><use transform="matrix(0.013129340277777775,0,0,0.013129340277777775,0,0)" xlink:href="#cb"/><use transform="matrix(0.013129340277777775,0,0,0.013129340277777775,15.348198784722218,0)" xlink:href="#cc"/><use transform="matrix(0.013129340277777775,0,0,0.013129340277777775,23.01573350694444,0)" xlink:href="#cd"/></g><path d="M182-130c37 4 62 22 62 59C244 23 116-4 24 0v-248c84 5 203-23 205 63 0 31-19 50-47 55zM76-148c40-3 101 13 101-30 0-44-60-28-101-31v61zm0 110c48-3 116 14 116-37 0-48-69-32-116-35v72" id="ce"/><g id="W"><use transform="matrix(0.043827160493827164,0,0,0.043827160493827164,0,0)" xlink:href="#ce"/><use transform="matrix(0.043827160493827164,0,0,0.043827160493827164,11.351234567901235,0)" xlink:href="#bf"/><use transform="matrix(0.043827160493827164,0,0,0.043827160493827164,20.116666666666667,0)" xlink:href="#br"/><use transform="matrix(0.043827160493827164,0,0,0.043827160493827164,25.3320987654321,0)" xlink:href="#ay"/></g><path d="M12 0v-35l95-120H19v-35h142v35L67-36h103V0H12" id="cf"/><g id="X"><use transform="matrix(0.043827160493827164,0,0,0.043827160493827164,0,0)" xlink:href="#bn"/><use transform="matrix(0.043827160493827164,0,0,0.043827160493827164,10.518518518518519,0)" xlink:href="#bo"/><use transform="matrix(0.043827160493827164,0,0,0.043827160493827164,14.901234567901232,0)" xlink:href="#cf"/><use transform="matrix(0.043827160493827164,0,0,0.043827160493827164,22.790123456790123,0)" xlink:href="#ay"/></g><path d="M240-174c0 40-23 61-54 70L253 0h-59l-57-94H76V0H24v-248c93 4 217-23 216 74zM76-134c48-2 112 12 112-38 0-48-66-32-112-35v73" id="cg"/><g id="Y"><use transform="matrix(0.043827160493827164,0,0,0.043827160493827164,0,0)" xlink:href="#cg"/><use transform="matrix(0.043827160493827164,0,0,0.043827160493827164,11.351234567901235,0)" xlink:href="#az"/><use transform="matrix(0.043827160493827164,0,0,0.043827160493827164,20.116666666666667,0)" xlink:href="#bq"/><use transform="matrix(0.043827160493827164,0,0,0.043827160493827164,29.714814814814815,0)" xlink:href="#bp"/><use transform="matrix(0.043827160493827164,0,0,0.043827160493827164,39.31296296296296,0)" xlink:href="#ay"/></g><use transform="matrix(0.007703993055555556,0,0,0.007703993055555556,0,0)" xlink:href="#bT" id="Z"/><path d="M541-1438c242 0 424 152 420 391-4 206-110 362-212 492-61 77-183 214-362 412h594V0H205v-119c197-219 325-366 383-441 97-126 195-282 198-480 2-161-107-254-272-254-66 0-155 20-266 61l-23-141c101-43 206-64 316-64" id="ch"/><path d="M827-432c0-176-103-292-268-293-57 0-114 11-170 33l-98-45v-674h645v143H434v426c313-85 565 119 565 410 0 249-214 459-464 459-123 0-227-21-310-62l33-139c91 38 184 57 281 57 178 0 288-128 288-315" id="ci"/><path d="M1036-1294L477 0H309l551-1268H199v-143h837v117" id="cj"/><g id="aa"><use transform="matrix(0.007703993055555556,0,0,0.007703993055555556,0,0)" xlink:href="#bT"/><use transform="matrix(0.007703993055555556,0,0,0.007703993055555556,9.468207465277779,0)" xlink:href="#bS"/><use transform="matrix(0.007703993055555556,0,0,0.007703993055555556,18.936414930555557,0)" xlink:href="#ch"/><use transform="matrix(0.007703993055555556,0,0,0.007703993055555556,28.404622395833336,0)" xlink:href="#ci"/><use transform="matrix(0.007703993055555556,0,0,0.007703993055555556,37.872829861111114,0)" xlink:href="#cj"/></g><use transform="matrix(0.007703993055555556,0,0,0.007703993055555556,0,0)" xlink:href="#bR" id="ab"/><path d="M1067-432c0 248-147 459-389 459-151 0-267-71-358-207-178-265-169-782 6-1043 95-141 217-215 376-215 110 0 205 16 285 49l-26 146c-212-78-403-83-508 105-59 105-91 238-91 403 88-71 184-107 287-107 233 0 418 175 418 410zm-174 14c0-165-86-281-248-280-102 0-195 35-278 104 0 121 28 230 85 329s128 148 214 148c158-2 227-131 227-301" id="ck"/><path d="M1206 0H999L522-692 373-530V0H209v-1411h164v676l626-676h189L637-815" id="cl"/><g id="ac"><use transform="matrix(0.007703993055555556,0,0,0.007703993055555556,0,0)" xlink:href="#ck"/><use transform="matrix(0.007703993055555556,0,0,0.007703993055555556,9.468207465277779,0)" xlink:href="#cj"/><use transform="matrix(0.007703993055555556,0,0,0.007703993055555556,18.936414930555557,0)" xlink:href="#bS"/><use transform="matrix(0.007703993055555556,0,0,0.007703993055555556,28.404622395833336,0)" xlink:href="#ck"/><use transform="matrix(0.007703993055555556,0,0,0.007703993055555556,37.872829861111114,0)" xlink:href="#ci"/><use transform="matrix(0.007703993055555556,0,0,0.007703993055555556,47.34103732638889,0)" xlink:href="#cl"/></g><g id="ad"><use transform="matrix(0.007703993055555556,0,0,0.007703993055555556,0,0)" xlink:href="#bT"/><use transform="matrix(0.007703993055555556,0,0,0.007703993055555556,9.468207465277779,0)" xlink:href="#bT"/><use transform="matrix(0.007703993055555556,0,0,0.007703993055555556,18.936414930555557,0)" xlink:href="#bS"/><use transform="matrix(0.007703993055555556,0,0,0.007703993055555556,28.404622395833336,0)" xlink:href="#ck"/><use transform="matrix(0.007703993055555556,0,0,0.007703993055555556,37.872829861111114,0)" xlink:href="#cj"/></g><path d="M1069 0H911v-1210L698-631H543l-213-579V0H172v-1411h213l236 643 235-643h213V0" id="cm"/><g id="ae"><use transform="matrix(0.007703993055555556,0,0,0.007703993055555556,0,0)" xlink:href="#bT"/><use transform="matrix(0.007703993055555556,0,0,0.007703993055555556,9.468207465277779,0)" xlink:href="#bS"/><use transform="matrix(0.007703993055555556,0,0,0.007703993055555556,18.936414930555557,0)" xlink:href="#bR"/><use transform="matrix(0.007703993055555556,0,0,0.007703993055555556,28.404622395833336,0)" xlink:href="#ck"/><use transform="matrix(0.007703993055555556,0,0,0.007703993055555556,37.872829861111114,0)" xlink:href="#cm"/></g><path d="M1073-326H899V0H735v-326H121v-125l557-960h221v942h174v143zM735-469v-780L287-469h448" id="cn"/><g id="af"><use transform="matrix(0.007703993055555556,0,0,0.007703993055555556,0,0)" xlink:href="#ck"/><use transform="matrix(0.007703993055555556,0,0,0.007703993055555556,9.468207465277779,0)" xlink:href="#cn"/><use transform="matrix(0.007703993055555556,0,0,0.007703993055555556,18.936414930555557,0)" xlink:href="#bS"/><use transform="matrix(0.007703993055555556,0,0,0.007703993055555556,28.404622395833336,0)" xlink:href="#bR"/><use transform="matrix(0.007703993055555556,0,0,0.007703993055555556,37.872829861111114,0)" xlink:href="#bT"/><use transform="matrix(0.007703993055555556,0,0,0.007703993055555556,47.34103732638889,0)" xlink:href="#ch"/></g><g id="ag"><use transform="matrix(0.007703993055555556,0,0,0.007703993055555556,0,0)" xlink:href="#bJ"/><use transform="matrix(0.007703993055555556,0,0,0.007703993055555556,9.468207465277779,0)" xlink:href="#bS"/><use transform="matrix(0.007703993055555556,0,0,0.007703993055555556,18.936414930555557,0)" xlink:href="#ch"/><use transform="matrix(0.007703993055555556,0,0,0.007703993055555556,28.404622395833336,0)" xlink:href="#ci"/><use transform="matrix(0.007703993055555556,0,0,0.007703993055555556,37.872829861111114,0)" xlink:href="#ci"/></g><g id="ah"><use transform="matrix(0.007703993055555556,0,0,0.007703993055555556,0,0)" xlink:href="#bT"/><use transform="matrix(0.007703993055555556,0,0,0.007703993055555556,9.468207465277779,0)" xlink:href="#bS"/><use transform="matrix(0.007703993055555556,0,0,0.007703993055555556,18.936414930555557,0)" xlink:href="#ck"/><use transform="matrix(0.007703993055555556,0,0,0.007703993055555556,28.404622395833336,0)" xlink:href="#cn"/><use transform="matrix(0.007703993055555556,0,0,0.007703993055555556,37.872829861111114,0)" xlink:href="#cl"/></g><path d="M1014-1081c-2 152-126 276-258 307 171 47 298 178 303 379 6 252-199 422-445 422-253 0-455-168-450-420 3-201 139-334 311-381-137-31-258-150-258-307 0-192 180-357 393-357 210 0 405 166 404 357zm-404-215c-159 0-287 169-206 326 37 71 119 113 206 128 126-26 230-85 236-231 5-126-110-223-236-223zm4 1179c157 0 275-119 275-284 0-66-18-125-55-177s-111-94-224-124c-183 53-274 154-274 301 0 162 126 284 278 284" id="co"/><g id="ai"><use transform="matrix(0.007703993055555556,0,0,0.007703993055555556,0,0)" xlink:href="#co"/><use transform="matrix(0.007703993055555556,0,0,0.007703993055555556,9.468207465277779,0)" xlink:href="#bS"/><use transform="matrix(0.007703993055555556,0,0,0.007703993055555556,18.936414930555557,0)" xlink:href="#bR"/><use transform="matrix(0.007703993055555556,0,0,0.007703993055555556,28.404622395833336,0)" xlink:href="#bT"/><use transform="matrix(0.007703993055555556,0,0,0.007703993055555556,37.872829861111114,0)" xlink:href="#ch"/></g><use transform="matrix(0.007703993055555556,0,0,0.007703993055555556,0,0)" xlink:href="#ch" id="aj"/><g id="ak"><use transform="matrix(0.007703993055555556,0,0,0.007703993055555556,0,0)" xlink:href="#bR"/><use transform="matrix(0.007703993055555556,0,0,0.007703993055555556,9.468207465277779,0)" xlink:href="#bS"/><use transform="matrix(0.007703993055555556,0,0,0.007703993055555556,18.936414930555557,0)" xlink:href="#ck"/><use transform="matrix(0.007703993055555556,0,0,0.007703993055555556,28.404622395833336,0)" xlink:href="#cn"/><use transform="matrix(0.007703993055555556,0,0,0.007703993055555556,37.872829861111114,0)" xlink:href="#cl"/></g><path fill="#fff" d="M169-182c-1-43-94-46-97-3 18 66 151 10 154 114 3 95-165 93-204 36-6-8-10-19-12-30l50-8c3 46 112 56 116 5-17-69-150-10-154-114-4-87 153-88 188-35 5 8 8 18 10 28" id="cp"/><path fill="#fff" d="M195-6C206 82 75 100 31 46c-4-6-6-13-8-21l49-6c3 16 16 24 34 25 40 0 42-37 40-79-11 22-30 35-61 35-53 0-70-43-70-97 0-56 18-96 73-97 30 0 46 14 59 34l2-30h47zm-90-29c32 0 41-27 41-63 0-35-9-62-40-62-32 0-39 29-40 63 0 36 9 62 39 62" id="cq"/><g id="al"><use transform="matrix(0.04999999999999998,0,0,0.04999999999999998,0,0)" xlink:href="#cp"/><use transform="matrix(0.04999999999999998,0,0,0.04999999999999998,11.999999999999996,0)" xlink:href="#bw"/><use transform="matrix(0.04999999999999998,0,0,0.04999999999999998,16.999999999999993,0)" xlink:href="#cq"/><use transform="matrix(0.04999999999999998,0,0,0.04999999999999998,27.94999999999999,0)" xlink:href="#bI"/><use transform="matrix(0.04999999999999998,0,0,0.04999999999999998,38.899999999999984,0)" xlink:href="#bF"/><use transform="matrix(0.04999999999999998,0,0,0.04999999999999998,48.89999999999998,0)" xlink:href="#bG"/><use transform="matrix(0.04999999999999998,0,0,0.04999999999999998,54.849999999999966,0)" xlink:href="#bC"/><use transform="matrix(0.04999999999999998,0,0,0.04999999999999998,65.79999999999997,0)" xlink:href="#bD"/><use transform="matrix(0.04999999999999998,0,0,0.04999999999999998,72.79999999999997,0)" xlink:href="#bA"/></g><path fill="#fff" d="M182-130c37 4 62 22 62 59C244 23 116-4 24 0v-248c84 5 203-23 205 63 0 31-19 50-47 55zM76-148c40-3 101 13 101-30 0-44-60-28-101-31v61zm0 110c48-3 116 14 116-37 0-48-69-32-116-35v72" id="cr"/><g id="am"><use transform="matrix(0.04999999999999998,0,0,0.04999999999999998,0,0)" xlink:href="#cr"/><use transform="matrix(0.04999999999999998,0,0,0.04999999999999998,12.949999999999996,0)" xlink:href="#bu"/><use transform="matrix(0.04999999999999998,0,0,0.04999999999999998,23.89999999999999,0)" xlink:href="#bQ"/><use transform="matrix(0.04999999999999998,0,0,0.04999999999999998,34.84999999999999,0)" xlink:href="#by"/></g><path d="M993 0H256v-1411h731v143H420v437h545v143H420v545h573V0" id="cs"/><path d="M127-705c1-423 154-732 559-733 133-1 286 39 363 95l-54 129c-94-53-197-80-309-80-130 0-227 48-290 142s-95 243-95 447c0 392 128 588 385 588 109 0 220-33 334-100l51 129C960-11 832 27 686 27c-400 0-560-301-559-732" id="ct"/><path d="M1098-705C1098-294 873-4 494 0H209v-1411h278c387-1 611 298 611 706zm-174 0c0-315-144-560-435-563H373v1125h116c292-3 435-245 435-562" id="cu"/><path d="M251-945c-104-289 136-493 421-493 94 0 187 14 280 43l-37 140c-210-82-526-60-528 182 0 85 71 158 211 225 177 85 201 79 309 177 65 59 115 146 115 265 0 265-215 434-465 433-121 0-228-24-319-72l34-141c107 49 201 73 281 73 177 0 311-99 309-272 0-63-18-115-55-159s-105-87-203-134c-169-81-188-73-285-166-30-29-54-63-68-101" id="cv"/><path d="M1176 0h-172L848-494H385L227 0H57l461-1411h197zM801-637l-185-584-184 584h369" id="cw"/><g id="an"><use transform="matrix(0.008789062499999997,0,0,0.008789062499999997,0,0)" xlink:href="#cs"/><use transform="matrix(0.008789062499999997,0,0,0.008789062499999997,10.801757812499996,0)" xlink:href="#ct"/><use transform="matrix(0.008789062499999997,0,0,0.008789062499999997,21.603515624999993,0)" xlink:href="#cu"/><use transform="matrix(0.008789062499999997,0,0,0.008789062499999997,32.405273437499986,0)" xlink:href="#cv"/><use transform="matrix(0.008789062499999997,0,0,0.008789062499999997,43.207031249999986,0)" xlink:href="#cw"/></g><path d="M872-1171l-36 280h-80l-37-280v-240h153v240zm-362 0l-37 280h-80l-37-280v-240h154v240" id="cx"/><path d="M793-909c-150 0-257 142-312 235V0H326v-1042h155v211c120-239 312-290 553-183l-63 150c-69-30-128-45-178-45" id="cy"/><g id="ao"><use transform="matrix(0.008789062499999997,0,0,0.008789062499999997,0,0)" xlink:href="#cx"/><use transform="matrix(0.008789062499999997,0,0,0.008789062499999997,10.801757812499996,0)" xlink:href="#cy"/><use transform="matrix(0.008789062499999997,0,0,0.008789062499999997,21.603515624999993,0)" xlink:href="#cx"/></g><path d="M233-774c0-203 206-293 431-293 84 0 177 14 280 43l-35 131c-87-29-170-43-247-43-138-1-275 41-275 156 0 30 9 58 34 78 98 81 345 103 453 176 76 51 130 115 130 231 0 215-214 322-443 322-128 0-234-19-317-58l30-135c87 41 181 62 281 62 144 0 293-52 293-177 0-36-13-69-40-97-28-49-299-119-369-144-108-39-206-109-206-252" id="cz"/><g id="ap"><use transform="matrix(0.008789062499999997,0,0,0.008789062499999997,0,0)" xlink:href="#cx"/><use transform="matrix(0.008789062499999997,0,0,0.008789062499999997,10.801757812499996,0)" xlink:href="#cz"/><use transform="matrix(0.008789062499999997,0,0,0.008789062499999997,21.603515624999993,0)" xlink:href="#cx"/></g><g id="aq"><use transform="matrix(0.007703993055555556,0,0,0.007703993055555556,0,0)" xlink:href="#bT"/><use transform="matrix(0.007703993055555556,0,0,0.007703993055555556,9.468207465277779,0)" xlink:href="#ch"/><use transform="matrix(0.007703993055555556,0,0,0.007703993055555556,18.936414930555557,0)" xlink:href="#bS"/><use transform="matrix(0.007703993055555556,0,0,0.007703993055555556,28.404622395833336,0)" xlink:href="#ck"/><use transform="matrix(0.007703993055555556,0,0,0.007703993055555556,37.872829861111114,0)" xlink:href="#ck"/></g><path fill="#fff" d="M24 0v-248h52V0H24" id="cA"/><path fill="#fff" d="M147 0H94L2-248h55l64 206c17-72 42-137 63-206h54" id="cB"/><path fill="#fff" d="M125-100v72H85v-72H15v-39h70v-72h40v72h71v39h-71" id="cC"/><path fill="#fff" d="M67-125c0 53 21 87 73 88 37 1 54-22 65-47l45 17C233-25 199 4 140 4 58 4 20-42 15-125 8-235 124-281 211-232c18 10 29 29 36 50l-46 12c-8-25-30-41-62-41-52 0-71 34-72 86" id="cD"/><path fill="#fff" d="M135-194c53 0 70 44 70 98 0 56-19 98-73 100-31 1-45-17-59-34 3 33 2 69 2 105H25l-1-265h48c2 10 0 23 3 31 11-24 29-35 60-35zM114-30c33 0 39-31 40-66 0-38-9-64-40-64-56 0-55 130 0 130" id="cE"/><path fill="#fff" d="M114-157C55-157 80-60 75 0H25v-261h50l-1 109c12-26 28-41 61-42 86-1 58 113 63 194h-50c-7-57 23-157-34-157" id="cF"/><path fill="#fff" d="M144 0l-44-69L55 0H2l70-98-66-92h53l41 62 40-62h54l-67 91 71 99h-54" id="cG"/><path fill="#fff" d="M230 0l2-204L168 0h-37L68-204 70 0H24v-248h70l56 185 57-185h69V0h-46" id="cH"/><path fill="#fff" d="M199 0l-22-63H83L61 0H9l90-248h61L250 0h-51zm-33-102l-36-108c-10 38-24 72-36 108h72" id="cI"/><g id="ar"><use transform="matrix(0.04999999999999998,0,0,0.04999999999999998,0,0)" xlink:href="#cA"/><use transform="matrix(0.04999999999999998,0,0,0.04999999999999998,4.999999999999998,0)" xlink:href="#cB"/><use transform="matrix(0.04999999999999998,0,0,0.04999999999999998,16.999999999999993,0)" xlink:href="#cC"/><use transform="matrix(0.04999999999999998,0,0,0.04999999999999998,27.49999999999999,0)" xlink:href="#cD"/><use transform="matrix(0.04999999999999998,0,0,0.04999999999999998,40.44999999999999,0)" xlink:href="#bw"/><use transform="matrix(0.04999999999999998,0,0,0.04999999999999998,45.44999999999999,0)" xlink:href="#cE"/><use transform="matrix(0.04999999999999998,0,0,0.04999999999999998,56.39999999999998,0)" xlink:href="#cF"/><use transform="matrix(0.04999999999999998,0,0,0.04999999999999998,67.34999999999998,0)" xlink:href="#bA"/><use transform="matrix(0.04999999999999998,0,0,0.04999999999999998,77.34999999999998,0)" xlink:href="#bD"/><use transform="matrix(0.04999999999999998,0,0,0.04999999999999998,84.34999999999998,0)" xlink:href="#bG"/><use transform="matrix(0.04999999999999998,0,0,0.04999999999999998,90.29999999999998,0)" xlink:href="#bA"/><use transform="matrix(0.04999999999999998,0,0,0.04999999999999998,100.29999999999998,0)" xlink:href="#cG"/><use transform="matrix(0.04999999999999998,0,0,0.04999999999999998,110.29999999999998,0)" xlink:href="#bG"/><use transform="matrix(0.04999999999999998,0,0,0.04999999999999998,116.24999999999999,0)" xlink:href="#cC"/><use transform="matrix(0.04999999999999998,0,0,0.04999999999999998,126.74999999999997,0)" xlink:href="#cH"/><use transform="matrix(0.04999999999999998,0,0,0.04999999999999998,141.7,0)" xlink:href="#cI"/><use transform="matrix(0.04999999999999998,0,0,0.04999999999999998,154.64999999999998,0)" xlink:href="#cD"/></g><g id="as"><use transform="matrix(0.04999999999999998,0,0,0.04999999999999998,0,0)" xlink:href="#bj"/><use transform="matrix(0.04999999999999998,0,0,0.04999999999999998,4.999999999999998,0)" xlink:href="#bk"/></g><g id="at"><use transform="matrix(0.04999999999999998,0,0,0.04999999999999998,0,0)" xlink:href="#aR"/><use transform="matrix(0.04999999999999998,0,0,0.04999999999999998,12.949999999999996,0)" xlink:href="#aF"/><use transform="matrix(0.04999999999999998,0,0,0.04999999999999998,16.899999999999995,0)" xlink:href="#bc"/><use transform="matrix(0.04999999999999998,0,0,0.04999999999999998,26.89999999999999,0)" xlink:href="#bd"/><use transform="matrix(0.04999999999999998,0,0,0.04999999999999998,36.89999999999999,0)" xlink:href="#aL"/><use transform="matrix(0.04999999999999998,0,0,0.04999999999999998,46.89999999999999,0)" xlink:href="#aM"/><use transform="matrix(0.04999999999999998,0,0,0.04999999999999998,52.849999999999994,0)" xlink:href="#ba"/><use transform="matrix(0.04999999999999998,0,0,0.04999999999999998,57.84999999999999,0)" xlink:href="#aL"/><use transform="matrix(0.04999999999999998,0,0,0.04999999999999998,67.84999999999998,0)" xlink:href="#bm"/><use transform="matrix(0.04999999999999998,0,0,0.04999999999999998,76.84999999999998,0)" xlink:href="#ba"/></g><g id="au"><use transform="matrix(0.04999999999999998,0,0,0.04999999999999998,0,0)" xlink:href="#aC"/><use transform="matrix(0.04999999999999998,0,0,0.04999999999999998,14.949999999999994,0)" xlink:href="#aO"/><use transform="matrix(0.04999999999999998,0,0,0.04999999999999998,26.94999999999999,0)" xlink:href="#aR"/></g><g id="av"><use transform="matrix(0.007703993055555556,0,0,0.007703993055555556,0,0)" xlink:href="#bJ"/><use transform="matrix(0.007703993055555556,0,0,0.007703993055555556,9.468207465277779,0)" xlink:href="#bS"/><use transform="matrix(0.007703993055555556,0,0,0.007703993055555556,18.936414930555557,0)" xlink:href="#bR"/><use transform="matrix(0.007703993055555556,0,0,0.007703993055555556,28.404622395833336,0)" xlink:href="#ck"/><use transform="matrix(0.007703993055555556,0,0,0.007703993055555556,37.872829861111114,0)" xlink:href="#cm"/></g><g id="aw"><use transform="matrix(0.007703993055555556,0,0,0.007703993055555556,0,0)" xlink:href="#co"/><use transform="matrix(0.007703993055555556,0,0,0.007703993055555556,9.468207465277779,0)" xlink:href="#bS"/><use transform="matrix(0.007703993055555556,0,0,0.007703993055555556,18.936414930555557,0)" xlink:href="#bT"/><use transform="matrix(0.007703993055555556,0,0,0.007703993055555556,28.404622395833336,0)" xlink:href="#ch"/></g></defs></g></svg>